<?xml version="1.0" encoding="UTF-8" standalone="no"?>
<!-- Created with Inkscape (http://www.inkscape.org/) -->

<svg
   xmlns:dc="http://purl.org/dc/elements/1.1/"
   xmlns:cc="http://creativecommons.org/ns#"
   xmlns:rdf="http://www.w3.org/1999/02/22-rdf-syntax-ns#"
   xmlns:svg="http://www.w3.org/2000/svg"
   xmlns="http://www.w3.org/2000/svg"
   xmlns:sodipodi="http://sodipodi.sourceforge.net/DTD/sodipodi-0.dtd"
   xmlns:inkscape="http://www.inkscape.org/namespaces/inkscape"
   version="1.1"
   id="svg2"
   xml:space="preserve"
   width="2318.3079"
   height="2075.7373"
   viewBox="0 0 2318.3079 2075.7373"
   sodipodi:docname="logo.svg"
   inkscape:version="0.92.4 (5da689c313, 2019-01-14)"
   inkscape:export-filename="C:\Users\skais\git\quantumforblacklives.github.io\images\logo.png"
   inkscape:export-xdpi="300"
   inkscape:export-ydpi="300"><metadata
     id="metadata8"><rdf:RDF><cc:Work
         rdf:about=""><dc:format>image/svg+xml</dc:format><dc:type
           rdf:resource="http://purl.org/dc/dcmitype/StillImage" /><dc:title></dc:title></cc:Work></rdf:RDF></metadata><defs
     id="defs6"><clipPath
       clipPathUnits="userSpaceOnUse"
       id="clipPath18"><path
         d="M 0,2100 H 2100 V 0 H 0 Z"
         id="path16"
         inkscape:connector-curvature="0" /></clipPath><clipPath
       clipPathUnits="userSpaceOnUse"
       id="clipPath74"><path
         d="M 0,2100 H 2100 V 0 H 0 Z"
         id="path72"
         inkscape:connector-curvature="0" /></clipPath><clipPath
       clipPathUnits="userSpaceOnUse"
       id="clipPath90"><path
         d="M 0,2100 H 2100 V 0 H 0 Z"
         id="path88"
         inkscape:connector-curvature="0" /></clipPath></defs><sodipodi:namedview
     pagecolor="#ffffff"
     bordercolor="#666666"
     borderopacity="1"
     objecttolerance="10"
     gridtolerance="10"
     guidetolerance="10"
     inkscape:pageopacity="0"
     inkscape:pageshadow="2"
     inkscape:window-width="3840"
     inkscape:window-height="2004"
     id="namedview4"
     showgrid="false"
     inkscape:zoom="0.238396"
     inkscape:cx="-2147.1996"
     inkscape:cy="987.27269"
     inkscape:window-x="-16"
     inkscape:window-y="-16"
     inkscape:window-maximized="1"
     inkscape:current-layer="g10"
     fit-margin-top="0"
     fit-margin-left="0"
     fit-margin-right="0"
     fit-margin-bottom="0" /><g
     id="g10"
     inkscape:groupmode="layer"
     inkscape:label="fist_ket"
     transform="matrix(1.3333333,0,0,-1.3333333,-289.65914,2449.871)"><g
       id="g12"
       transform="translate(44.044364)"><g
         id="g14"
         clip-path="url(#clipPath18)"><g
           id="g20"
           transform="translate(967.9893,783.5879)"><path
             d="M 0,0 C 0,0 0,0 0.001,-0.001 -0.013,0.031 -0.026,0.062 -0.041,0.094 -0.027,0.062 -0.014,0.031 0,0"
             style="fill:#f30b00;fill-opacity:1;fill-rule:nonzero;stroke:none"
             id="path22"
             inkscape:connector-curvature="0" /></g><g
           id="g24"
           transform="translate(967.9888,783.5918)"><path
             d="M 0,0 C 0,-0.004 0.004,-0.009 0.004,-0.009 -0.021,0.045 -0.045,0.102 -0.07,0.155 -0.045,0.102 -0.024,0.049 0,0"
             style="fill:#f30b00;fill-opacity:1;fill-rule:nonzero;stroke:none"
             id="path26"
             inkscape:connector-curvature="0" /></g><g
           id="g28"
           transform="translate(968.0503,783.4395)"><path
             d="M 0,0 C -0.004,0.013 -0.008,0.025 -0.017,0.037 -0.012,0.025 -0.004,0.013 0,0"
             style="fill:#f30b00;fill-opacity:1;fill-rule:nonzero;stroke:none"
             id="path30"
             inkscape:connector-curvature="0" /></g><g
           id="g32"
           transform="translate(872.062,1420.3242)"><path
             d="m 0,0 c -0.009,0.037 -0.018,0.075 -0.026,0.112 0,0.003 -0.002,0.006 -0.003,0.009 C -0.021,0.081 -0.01,0.04 0,0"
             style="fill:#f30b00;fill-opacity:1;fill-rule:nonzero;stroke:none"
             id="path34"
             inkscape:connector-curvature="0" /></g><g
           id="g36"
           transform="translate(874.9639,1411.4805)"><path
             d="M 0,0 C -0.062,0.119 -0.119,0.233 -0.18,0.352 L -0.225,0.397 C -0.147,0.266 -0.074,0.135 0,0"
             style="fill:#f30b00;fill-opacity:1;fill-rule:nonzero;stroke:none"
             id="path38"
             inkscape:connector-curvature="0" /></g><g
           id="g40"
           transform="translate(833.1826,1669.2544)"><path
             d="m 0,0 c -0.63,0 -1.229,-0.027 -1.832,-0.082 -1.74,-0.168 -3.076,-0.459 -4.331,-0.942 -0.76,-0.289 -1.506,-0.632 -2.217,-1.02 -0.954,-0.514 -1.891,-1.071 -2.847,-1.643 -1.938,-1.163 -3.651,-2.62 -5.529,-4.264 -1.761,-1.551 -3.249,-3.02 -4.551,-4.49 -0.643,-0.728 -1.295,-1.449 -1.945,-2.17 -2.079,-2.308 -4.228,-4.694 -6.16,-7.204 -2.635,-3.436 -4.859,-6.646 -6.799,-9.813 -0.776,-1.268 -1.524,-2.592 -2.183,-3.76 l -0.063,-0.112 c -1.117,-1.968 -2.271,-4.002 -3.577,-5.908 -0.77,-1.117 -1.524,-2.252 -2.278,-3.386 -1.347,-2.028 -2.74,-4.124 -4.23,-6.143 -2.825,-3.552 -5.159,-6.524 -7.326,-9.727 -1.778,-2.627 -3.692,-5.223 -5.543,-7.734 l -0.202,-0.275 -0.508,-0.684 c -0.916,-1.121 -1.929,-2.191 -2.908,-3.226 l -0.11,-0.115 c -1.157,-1.22 -2.32,-2.446 -3.35,-3.752 l -0.602,-0.766 c -0.961,-1.223 -1.904,-2.417 -2.879,-3.579 -0.835,-0.997 -1.614,-2.033 -2.474,-3.186 -0.319,-0.431 -0.643,-0.856 -0.966,-1.282 l -1.204,-1.528 -0.115,-0.144 c -0.868,-1.091 -1.765,-2.22 -2.601,-3.361 -0.614,-0.836 -1.204,-1.68 -1.794,-2.528 l -0.343,-0.489 c -0.343,-0.488 -0.686,-0.978 -1.036,-1.459 -0.688,-1.537 -1.555,-2.891 -2.576,-4.025 -0.175,-0.198 -0.36,-0.388 -0.545,-0.578 l -0.159,-0.164 c -0.344,-0.344 -0.678,-0.684 -0.975,-1.048 -0.34,-0.414 -0.659,-0.844 -0.979,-1.274 -0.274,-0.369 -0.553,-0.738 -0.839,-1.094 -0.948,-1.185 -2.035,-2.284 -3.086,-3.347 -0.575,-0.579 -1.144,-1.153 -1.693,-1.742 -1.714,-1.832 -3.582,-3.784 -5.626,-5.647 l 0.345,0.254 -0.427,-0.348 c -0.267,-0.356 -0.498,-0.676 -0.721,-0.986 l -0.28,-0.388 c -0.674,-0.833 -1.37,-1.636 -2.071,-2.446 l -0.119,-0.137 -1.053,-1.216 c -1.473,-1.731 -2.942,-3.579 -4.366,-5.493 -1.311,-1.763 -2.393,-3.236 -3.387,-4.804 -0.414,-0.652 -0.819,-1.303 -1.225,-1.958 -0.655,-1.06 -1.314,-2.117 -1.994,-3.165 -2.201,-3.369 -4.771,-6.713 -7.039,-9.664 l -0.663,-0.865 c -1.628,-2.121 -3.006,-4.464 -4.338,-6.728 l -0.071,-0.119 c -0.729,-1.24 -1.483,-2.521 -2.272,-3.752 -0.582,-0.906 -1.2,-1.796 -1.815,-2.682 l -0.195,-0.282 c -0.43,-0.621 -0.858,-1.239 -1.274,-1.868 -1.049,-1.584 -1.929,-3.504 -2.614,-5.707 -0.596,-1.896 -0.84,-3.659 -0.725,-5.238 0.127,-1.658 0.656,-3.251 1.529,-4.608 0.559,-0.871 1.294,-1.728 2.246,-2.619 1.156,-1.085 2.422,-2.119 3.539,-3.031 l 0.364,-0.299 c 0.32,-0.264 0.639,-0.526 0.954,-0.79 1.64,-1.366 3.604,-2.962 5.735,-4.444 1.511,-1.053 3.237,-1.852 4.906,-2.626 l 1.058,-0.491 c 2.5,-1.181 4.559,-2.063 6.479,-2.777 1.177,-0.44 2.391,-0.823 3.633,-1.209 l 0.15,-0.047 c 0.781,-0.246 1.566,-0.493 2.34,-0.755 1.455,-0.501 2.895,-1.051 4.492,-1.667 l 0.211,-0.081 c 1.541,-0.592 3.134,-1.205 4.724,-1.733 2.622,-0.878 5.668,-1.917 8.632,-3.141 1.962,-0.845 3.98,-1.625 5.931,-2.379 1.514,-0.586 3.026,-1.172 4.529,-1.79 0.933,-0.409 1.858,-0.835 2.784,-1.261 l 0.23,-0.106 c 1.24,-0.568 2.523,-1.155 3.8,-1.684 1.376,-0.574 2.752,-1.142 4.132,-1.712 l 1.712,-0.708 c 0.706,-0.312 1.412,-0.628 2.116,-0.944 l 0.582,-0.26 c 1.925,-0.865 3.662,-1.639 5.427,-2.367 1.167,-0.483 2.348,-0.935 3.529,-1.387 l 0.337,-0.129 0.211,-0.081 c 1.126,-0.431 2.255,-0.864 3.372,-1.315 1.234,-0.541 2.461,-1.109 3.687,-1.677 l 0.412,-0.19 0.717,-0.332 0.172,-0.082 c 0.898,-0.416 2.016,-0.934 3.113,-1.299 1.167,-0.391 2.304,-0.714 3.564,-1.065 l 2.092,-0.602 0.479,-0.137 c 1.049,-0.303 2.098,-0.606 3.154,-0.891 0.544,-0.148 1.086,-0.29 1.627,-0.432 l 0.212,-0.055 c 1.503,-0.388 2.855,-0.743 4.189,-1.167 1.08,-0.345 2.153,-0.755 3.189,-1.15 0.852,-0.324 1.708,-0.648 2.573,-0.943 1.755,-0.597 3.519,-1.1 5.627,-1.671 0.989,-0.27 1.981,-0.526 2.97,-0.781 l 0.179,-0.046 c 0.975,-0.25 1.95,-0.5 2.92,-0.761 2.144,-0.58 4.415,-1.005 6.943,-1.299 0.956,-0.108 1.815,-0.16 2.627,-0.16 1.572,0 2.992,0.197 4.343,0.603 1.599,0.474 3.29,1.197 5.322,2.278 1.843,0.978 3.456,2.385 4.655,3.502 0.969,0.907 1.84,2.012 2.609,2.987 l 0.623,0.778 c 0.524,0.651 1.061,1.298 1.597,1.941 0.536,0.643 1.073,1.286 1.601,1.937 1.226,1.521 2.298,3.194 3.335,4.813 l 0.077,0.123 0.68,1.065 c 1.593,2.501 3.209,5.04 4.963,7.424 1.165,1.405 2.486,2.953 4.038,4.733 0.636,0.735 1.293,1.452 1.946,2.166 0.83,0.906 1.637,1.79 2.411,2.699 1.292,1.526 2.98,3.557 4.575,5.735 l 1.196,1.646 c 0.86,1.192 1.72,2.375 2.6,3.542 1.478,1.873 3.154,3.869 5.274,6.282 2.222,2.53 4.203,4.955 6.058,7.413 1.169,1.553 2.308,3.161 3.408,4.714 0.597,0.843 1.154,1.629 1.715,2.412 1.701,2.36 3.294,4.505 4.869,6.556 0.367,0.473 0.737,0.942 1.106,1.411 l 0.34,0.432 c 1.492,1.887 3.003,3.798 4.37,5.778 0.927,1.341 1.83,2.732 2.704,4.078 l 0.134,0.207 c 0.668,1.032 1.335,2.063 2.019,3.087 1.431,2.139 3.064,4.416 4.992,6.962 0.717,0.951 1.418,1.908 2.12,2.867 l 0.325,0.442 0.261,0.358 c 0.69,0.945 1.38,1.889 2.085,2.82 2.187,2.741 4.046,5.411 5.681,8.162 0.311,0.52 0.607,1.044 0.906,1.571 l 0.085,0.149 0.182,0.32 c 0.398,0.697 0.796,1.394 1.219,2.08 0.731,1.173 1.526,2.266 2.345,3.374 0.792,0.986 1.611,1.939 2.523,2.993 2.03,2.35 4.131,4.78 5.653,7.578 0.563,1.024 1.063,2.149 1.573,3.54 0.137,0.367 0.225,0.763 0.31,1.145 l 0.083,0.4 c 0.251,1.109 0.401,2.315 0.447,3.585 0.025,0.706 -0.128,1.446 -0.275,2.161 l -0.094,0.467 c -0.117,0.605 -0.317,1.177 -0.517,1.705 -0.239,0.649 -0.562,1.5 -0.933,2.335 -0.344,0.782 -0.718,1.611 -1.176,2.404 -2.002,3.451 -4.408,6.732 -6.701,9.798 -1.241,1.656 -2.899,3.808 -4.718,5.771 -0.701,0.758 -1.506,1.407 -2.41,2.118 -0.859,0.68 -1.736,1.348 -2.612,2.011 l -0.795,0.606 c -1.468,1.121 -3.036,2.145 -4.554,3.135 l -0.123,0.08 c -1.216,0.791 -2.595,1.688 -3.882,2.625 l -0.331,0.258 c -0.963,0.753 -1.926,1.507 -2.904,2.223 -0.865,0.636 -1.758,1.238 -2.646,1.835 l -0.926,0.623 -1.458,0.983 c -1.562,1.048 -3.176,2.132 -4.721,3.301 -0.545,0.429 -1.085,0.859 -1.626,1.294 -0.7,0.561 -1.396,1.117 -2.105,1.67 l 0.114,-0.138 c -1.436,1.174 -2.882,2.333 -4.328,3.496 -1.228,0.987 -2.461,1.974 -3.698,2.949 -1.665,1.308 -3.179,2.407 -4.628,3.362 l -0.152,0.103 c -1.295,0.852 -2.596,1.708 -3.828,2.617 -1.651,1.314 -3.363,2.62 -4.832,3.738 -0.926,0.756 -1.854,1.592 -3.01,2.711 -1.16,1.111 -2.417,2.096 -3.605,3.011 -1.248,0.957 -2.541,1.883 -3.866,2.825 -0.929,0.664 -1.859,1.327 -2.772,2.007 l 0.819,-0.688 c -1.255,1.029 -2.583,2.007 -3.867,2.953 l -0.183,0.135 -0.591,0.437 c -0.54,0.397 -1.08,0.795 -1.616,1.197 -1.208,0.946 -2.433,1.863 -3.666,2.772 -1.428,1.127 -2.553,2.055 -3.541,2.92 -1.861,1.633 -3.421,2.986 -5.136,4.288 -1.625,1.227 -3.352,2.342 -5.133,3.314 C 9.233,-1.302 7.091,-0.667 4.231,-0.307 2.563,-0.098 1.218,0 0,0"
             style="fill:#050000;fill-opacity:1;fill-rule:nonzero;stroke:none"
             id="path42"
             inkscape:connector-curvature="0" /></g><g
           id="g44"
           transform="translate(703.5244,616.3115)"><path
             d="M 0,0 0.123,0.714 0.019,0.064 Z m -80.344,297.161 -0.384,0.541 0.359,-0.496 z m 66.021,564.148 c -0.236,0 -0.472,-0.008 -0.706,-0.015 l -0.224,-0.006 c -0.307,-0.012 -0.606,-0.02 -0.901,-0.02 l -2.604,-0.013 c -2.471,-0.022 -4.262,-0.048 -6.098,-0.114 -2.384,-0.086 -4.618,-0.302 -6.829,-0.66 -1.036,-0.167 -2.067,-0.47 -2.978,-0.737 -0.712,-0.209 -1.448,-0.425 -2.194,-0.586 -0.679,-0.149 -1.396,-0.353 -2.192,-0.623 -0.072,0.029 -0.158,0.058 -0.244,0.079 -0.378,0.057 -0.747,0.106 -1.12,0.156 -0.759,-0.004 -1.475,-0.199 -2.128,-0.58 -2.181,-0.937 -4.36,-1.875 -6.526,-2.845 -1.567,-0.701 -3.233,-1.477 -4.805,-2.401 -2.054,-1.201 -3.652,-2.345 -5.031,-3.6 -1.188,-1.086 -2.266,-2.308 -3.31,-3.49 l -0.299,-0.336 c -0.693,-0.784 -1.407,-1.551 -2.121,-2.318 l -0.066,-0.085 -0.007,0.007 c -0.438,-0.469 -0.878,-0.941 -1.311,-1.413 -0.61,-0.665 -1.177,-1.41 -1.725,-2.13 l -0.077,-0.102 -0.365,-0.476 -0.459,-0.597 c -0.414,-0.533 -0.823,-1.069 -1.22,-1.61 l -0.348,-0.479 c -1.068,-1.451 -2.029,-2.763 -2.974,-4.124 -0.487,-0.705 -0.97,-1.413 -1.449,-2.122 l -0.217,-0.319 c -0.64,-0.941 -1.279,-1.882 -1.941,-2.813 -1.175,-1.652 -2.386,-3.278 -3.597,-4.905 l -0.262,-0.354 c -1.007,-1.359 -2.013,-2.716 -2.997,-4.087 -1.774,-2.482 -3.362,-5.118 -4.898,-7.667 l -0.253,-0.418 c -0.547,-0.906 -1.095,-1.813 -1.652,-2.714 -1.902,-3.056 -3.949,-5.903 -6.237,-9.042 -0.607,-0.834 -1.209,-1.668 -1.813,-2.505 l -0.226,-0.313 c -1.32,-1.828 -2.817,-3.902 -4.328,-5.901 -1.105,-1.373 -2.313,-2.813 -3.694,-4.402 -1.778,-2.057 -3.462,-4.257 -5.017,-6.327 -1.53,-2.041 -3.002,-4.18 -4.425,-6.25 l -0.256,-0.373 -0.182,-0.265 c -0.939,-1.366 -1.879,-2.733 -2.84,-4.08 -2.667,-3.748 -5.244,-7.614 -7.659,-11.492 -0.365,-0.582 -0.725,-1.17 -1.083,-1.757 l -0.203,-0.331 c -0.778,-1.274 -1.556,-2.547 -2.367,-3.8 -0.96,-1.476 -1.996,-2.948 -3.169,-4.5 -1.334,-1.683 -2.796,-3.378 -4.087,-4.873 l -0.7,-0.811 c -0.765,-0.885 -1.469,-1.862 -2.149,-2.807 -0.276,-0.386 -0.499,-0.698 -0.726,-1.003 -0.561,-0.77 -1.122,-1.543 -1.68,-2.317 l -0.511,-0.705 c -1.353,-1.875 -2.699,-3.749 -4.048,-5.626 l -0.621,-0.865 c -1.822,-2.543 -3.645,-5.086 -5.484,-7.617 l -1.101,-1.515 c -1.212,-1.647 -2.299,-3.138 -3.326,-4.706 l -1.466,-2.24 c -1.089,-1.675 -2.183,-3.346 -3.292,-5.004 -3.025,-4.508 -6.268,-9.041 -9.64,-13.473 -2.544,-3.21 -5.29,-6.554 -8.161,-9.939 -1.209,-1.426 -2.405,-2.867 -3.597,-4.305 -1.756,-2.118 -3.747,-4.518 -5.712,-6.756 -0.508,-0.582 -1.028,-1.147 -1.552,-1.716 l -0.157,-0.172 c -0.745,-0.814 -1.515,-1.654 -2.227,-2.519 -1.403,-1.698 -2.8,-3.555 -4.272,-5.677 -1.033,-1.487 -2.389,-3.462 -3.714,-5.545 -0.799,-1.253 -1.585,-2.519 -2.368,-3.784 l -0.39,-0.629 c -0.427,-0.689 -0.855,-1.379 -1.289,-2.07 l -1.343,-2.138 c -1.863,-2.983 -3.975,-6.364 -6.151,-9.533 -0.478,-0.692 -0.97,-1.38 -1.462,-2.064 -0.654,-0.908 -1.467,-2.039 -2.191,-3.158 -1.441,-2.223 -2.826,-4.278 -4.234,-6.282 -0.687,-0.977 -1.382,-1.949 -2.077,-2.919 l -0.474,-0.664 c -1.568,-2.189 -3.345,-4.671 -4.993,-7.138 -0.994,-1.49 -1.926,-3.09 -2.748,-4.502 l -0.725,-1.24 c -1.21,-2.056 -2.623,-4.023 -3.988,-5.925 -0.438,-0.611 -0.827,-1.135 -1.216,-1.659 l -0.373,-0.499 c -0.597,-0.725 -1.221,-1.424 -1.844,-2.123 l -0.232,-0.26 c -0.704,-0.782 -1.409,-1.569 -2.08,-2.38 -1.708,-2.072 -3.151,-4.438 -4.371,-6.492 -0.471,-0.787 -0.865,-1.633 -1.245,-2.45 l -0.295,-0.635 c -0.52,-1.111 -1.032,-2.347 -1.565,-3.781 -1.026,-2.775 -1.483,-5.63 -1.794,-8.057 -0.62,-4.846 -0.535,-9.448 0.25,-13.678 0.845,-4.534 2.67,-8.85 4.435,-13.025 l 0.279,-0.659 c 1.906,-4.513 3.849,-8.654 5.943,-12.659 0.332,-0.64 0.67,-1.273 1.008,-1.908 l 0.175,-0.328 c 0.652,-1.212 1.299,-2.425 1.921,-3.657 1.026,-2.04 2.073,-4.277 3.296,-7.039 l 0.639,-1.458 c 1.566,-3.573 3.185,-7.267 5.12,-10.751 1.14,-2.053 2.315,-4.028 3.592,-6.037 0.385,-0.61 0.777,-1.221 1.167,-1.828 l 0.196,-0.306 c 0.939,-1.46 1.934,-3.016 2.879,-4.574 2.099,-3.475 4.226,-7.232 6.503,-11.487 1.149,-2.156 2.271,-4.369 3.355,-6.509 l 0.22,-0.432 0.708,-1.413 0.113,-0.224 c 0.807,-1.608 1.642,-3.269 2.566,-4.855 0.721,-1.253 1.546,-2.481 2.343,-3.668 l 0.094,-0.141 c 0.344,-0.512 0.688,-1.023 1.028,-1.539 0.666,-1.019 1.315,-2.045 1.966,-3.071 l 0.307,-0.484 c 0.561,-0.893 1.126,-1.786 1.7,-2.674 1.347,-2.102 2.764,-4.206 4.133,-6.241 l 0.2,-0.296 c 1.048,-1.553 2.089,-3.098 3.116,-4.656 0.422,-0.642 0.851,-1.282 1.282,-1.916 l 0.196,-0.292 c 0.865,-1.288 1.76,-2.62 2.563,-3.975 l 0.807,-1.364 0.56,-0.948 c 0.957,-1.622 1.915,-3.247 2.868,-4.871 1.696,-2.903 3.556,-5.876 5.197,-8.498 0.676,-1.077 1.347,-2.154 2.019,-3.235 1.701,-2.746 3.357,-5.555 4.959,-8.273 0.713,-1.208 1.426,-2.412 2.142,-3.616 1.077,-1.806 2.179,-3.6 3.285,-5.389 1.15,-1.872 2.301,-3.743 3.428,-5.631 1.529,-2.58 3.198,-5.134 4.812,-7.605 l 0.11,-0.168 0.516,-0.791 c 0.713,-1.091 1.426,-2.182 2.125,-3.279 2.286,-3.595 4.585,-7.483 7.031,-11.889 1.184,-2.132 2.339,-4.333 3.456,-6.462 l 0.28,-0.532 c 1.178,-2.256 2.335,-4.46 3.529,-6.627 2.296,-4.171 4.756,-8.28 7.311,-12.212 l 0.068,-0.106 c 1.199,-1.841 2.438,-3.747 3.712,-5.583 1.6,-2.296 3.364,-4.516 5.337,-6.97 3.258,-4.054 6.314,-7.786 9.341,-11.41 1.945,-2.323 3.911,-4.632 5.877,-6.938 l 0.123,-0.144 c 4.136,-4.854 8.414,-9.873 12.404,-14.983 0.991,-1.327 1.974,-2.662 2.957,-3.997 2.127,-2.891 4.05,-5.495 6.049,-8.101 0.524,-0.692 1.052,-1.379 1.585,-2.068 l 0.11,-0.123 c 1.769,-2.361 3.584,-4.934 5.704,-8.103 0.522,-0.779 1.035,-1.566 1.547,-2.352 l 0.21,-0.322 0.971,-1.488 c 0.643,-0.981 1.314,-1.947 1.981,-2.908 l 0.062,-0.09 0.614,-0.888 0.607,-0.88 c 0.264,-0.391 0.531,-0.778 0.8,-1.165 l 0.391,-0.568 c 0.688,-0.991 1.377,-1.986 2.04,-2.993 0.492,-0.755 0.981,-1.51 1.468,-2.262 l 0.505,-0.781 1.327,-2.051 0.316,-0.488 0.597,-0.92 c 1.688,-2.603 3.375,-5.204 5.038,-7.823 2.308,-3.634 4.259,-6.763 5.966,-9.566 l 0.369,-0.607 c 0.816,-1.346 1.74,-2.873 2.724,-4.333 1.011,-1.507 2.039,-3.002 3.071,-4.492 1.339,-1.95 2.703,-3.879 4.067,-5.808 l 1.966,-2.785 0.921,-1.318 0.173,-0.248 c 0.774,-1.105 1.546,-2.208 2.35,-3.29 0.983,-1.322 2.024,-2.635 3.031,-3.905 l 0.679,-0.863 0.897,-1.15 0.914,-1.18 c 10e-4,0 -0.015,0.029 -0.016,0.038 l 0.048,-0.074 0.217,-0.279 0.16,-0.204 0.683,-0.894 c 1.822,-2.406 3.719,-4.776 5.497,-6.978 1.543,-2.019 3.108,-4.022 4.681,-6.016 1.191,-1.593 2.354,-3.214 3.513,-4.832 l 0.198,-0.276 c 1.4,-1.953 2.849,-3.972 4.336,-5.909 3.011,-3.916 5.554,-7.692 7.776,-11.543 1.228,-2.144 2.223,-4.292 3.034,-6.109 0.925,-2.064 1.859,-4.119 2.797,-6.176 0.492,-1.081 1.014,-2.151 1.537,-3.224 l 0.077,-0.159 c 0.429,-0.88 0.86,-1.76 1.277,-2.649 0.463,-0.996 0.94,-1.986 1.417,-2.979 l 0.152,-0.314 c 0.463,-0.954 0.925,-1.912 1.38,-2.874 1.317,-3.397 2.322,-6.942 3.161,-9.999 0.878,-3.204 1.578,-6.356 2.08,-9.365 0.483,-3.989 0.749,-8.2 0.839,-13.255 0.094,-4.885 -0.141,-9.688 -0.7,-14.275 -0.224,-1.29 -0.491,-2.672 -0.794,-4.11 -0.362,-1.674 -0.89,-3.32 -1.4,-4.914 L 6.84,98.022 C 6.3,96.362 5.696,94.71 5.111,93.112 l -0.09,-0.25 C 4.405,91.193 3.881,89.536 3.31,87.698 2.39,84.742 1.922,81.624 1.471,78.608 L 1.376,77.976 C 1.299,77.458 1.222,76.939 1.139,76.422 0.665,73.407 0.272,70.327 -0.108,67.349 L -0.172,66.852 -0.45,64.677 C -0.91,61.186 -1.301,57.624 -1.679,54.181 -1.925,51.94 -2.162,49.778 -2.42,47.62 -3.483,39.913 -4.316,33.57 -5.041,27.659 L -5.164,26.738 C -5.661,23.126 -6.225,19.031 -6.606,15.087 -7.008,10.86 -7.523,6.738 -7.974,3.265 L -7.998,3.034 -8.228,1.355 -8.485,-0.549 -8.756,-2.351 c -0.426,-2.854 -0.855,-5.712 -1.314,-8.566 -0.208,-1.319 -0.428,-2.634 -0.647,-3.952 l -0.029,-0.172 c -0.36,-2.154 -0.717,-4.313 -1.044,-6.476 -0.403,-2.687 -0.71,-5.434 -1.008,-8.09 l -0.016,-0.141 c -0.115,-1.032 -0.229,-2.06 -0.352,-3.092 -0.41,-3.512 -0.78,-7.296 -1.131,-11.569 -0.147,-1.807 -0.319,-3.616 -0.491,-5.422 -0.192,-1.999 -0.385,-3.997 -0.545,-6 -0.173,-2.206 -0.291,-4.422 -0.405,-6.565 -0.082,-1.56 -0.164,-3.121 -0.27,-4.685 -0.438,-6.577 -1.135,-13.618 -2.13,-21.523 -1.004,-6.934 -1.847,-12.257 -2.736,-17.262 -0.139,-0.803 -0.303,-1.606 -0.466,-2.407 -0.148,-0.717 -0.291,-1.434 -0.426,-2.16 -0.189,-1.04 -0.369,-2.084 -0.545,-3.132 l -0.324,-1.851 c -0.436,-2.506 -0.978,-5.624 -1.772,-8.513 -0.135,-0.484 -0.271,-0.967 -0.41,-1.446 -0.291,-1.03 -0.582,-2.057 -0.835,-3.092 -0.201,-0.815 -0.361,-1.638 -0.517,-2.458 l -0.213,-1.06 -0.118,-0.607 c -0.476,-2.354 -0.96,-4.757 -1.299,-7.15 -0.176,-1.303 -0.336,-2.606 -0.471,-3.911 -0.429,-1.391 -0.879,-2.776 -1.334,-4.159 0.164,-0.494 0.271,-0.887 0.327,-1.209 l 0.094,-0.533 0.034,-0.199 0.224,-1.328 c 0.642,-1.937 1.053,-3.973 1.225,-6.052 l 0.02,-0.282 0.02,-0.275 0.017,-0.283 0.008,-0.229 0.021,-0.16 -0.009,-0.159 0.004,-0.139 0.017,-0.136 0.004,-0.156 -0.012,-0.117 0.004,-0.181 c 0,-0.425 -0.004,-0.79 -0.017,-1.154 0.613,-1.554 1.081,-3.149 1.393,-4.744 l 0.037,-0.149 0.025,-0.127 0.024,-0.187 c 0.127,-0.743 0.221,-1.447 0.287,-2.154 l 0.218,-0.168 c 0.381,-0.284 0.756,-0.564 1.129,-0.85 0.491,-0.373 0.974,-0.754 1.449,-1.147 l 0.463,-0.384 0.09,-0.079 0.103,-0.086 0.442,-0.384 0.262,-0.238 c 0.176,-0.16 0.347,-0.323 0.515,-0.491 l 0.368,-0.137 0.561,-0.217 2.13,-0.868 c 1.716,-0.707 3.572,-1.501 5.515,-2.531 4.301,-0.492 6.233,-0.853 9.203,-2.023 0.348,-0.136 0.7,-0.279 1.073,-0.439 l 0.123,-0.049 c 1.007,-0.426 2.072,-0.901 3.341,-1.474 0.681,-0.308 1.302,-0.706 1.71,-0.978 0.735,-0.009 1.419,-0.035 2.119,-0.08 1.17,-0.076 2.367,-0.206 3.558,-0.384 l 0.131,-0.012 0.221,-0.046 c 0.585,-0.094 1.158,-0.2 1.732,-0.323 2.63,-0.545 4.992,-1.333 7.021,-2.342 l 1.009,-0.213 1.004,-0.205 c 3.862,-0.818 7.728,-1.803 11.466,-2.756 l 1.421,-0.365 c 4.803,-1.221 9.676,-2.27 13.384,-3.047 1.118,-0.23 2.234,-0.47 3.349,-0.71 l 0.77,-0.166 0.428,-0.092 c 2.255,-0.486 4.587,-0.989 6.887,-1.431 3.627,-0.693 7.329,-1.339 10.91,-1.965 l 0.381,-0.067 0.536,-0.094 c 4.338,-0.748 8.704,-1.29 12.975,-1.61 l 1.102,-0.082 c 3.626,-0.273 7.314,-0.551 10.938,-0.921 2.405,-0.361 4.757,-0.779 6.773,-1.142 2.883,-0.513 5.693,-0.885 9.292,-1.32 2.165,-0.254 4.462,-0.412 6.308,-0.54 l 1.249,-0.091 c 2.487,-0.17 5.128,-0.408 8.075,-0.724 l 1.884,-0.258 c 3.558,-0.498 7.591,-1.062 11.549,-1.339 1.564,-0.105 3.132,-0.199 4.696,-0.293 2.986,-0.177 6.327,-0.374 9.539,-0.678 l 1.638,-0.229 c 2.271,-0.321 4.318,-0.606 6.372,-0.848 2.555,-0.295 5.107,-0.597 7.662,-0.904 2.717,-0.321 5.486,-0.578 8.164,-0.826 2.517,-0.231 5.051,-0.463 7.55,-0.751 1.093,-0.168 2.182,-0.353 3.271,-0.541 l 0.73,-0.123 c 0.586,-0.099 1.173,-0.199 1.76,-0.294 2.805,-0.446 5.389,-0.782 7.901,-1.028 1.142,-0.116 2.309,-0.173 3.438,-0.228 l 0.109,-0.006 c 1.023,-0.049 2.043,-0.102 3.063,-0.192 1.845,-0.159 3.716,-0.401 5.526,-0.633 l 0.28,-0.039 c 2.492,-0.421 4.695,-1.022 6.734,-1.834 l 0.237,-0.107 0.123,-0.052 c 1.008,-0.438 2.051,-0.89 3.114,-1.209 1.591,-0.488 3.185,-0.715 4.671,-0.889 0.587,-0.065 1.362,-0.14 2.151,-0.14 0.241,0 0.487,0.009 0.729,0.021 0.463,0.037 0.926,0.094 1.381,0.156 l 0.143,0.016 c 1.07,0.142 2.036,0.288 3.033,0.627 l 0.155,0.053 0.16,0.053 c 0.706,0.36 1.422,0.685 2.131,0.967 0.396,0.156 0.79,0.303 1.187,0.438 1.453,1.062 3.108,2.01 4.923,2.823 0.031,0.164 0.043,0.311 0.043,0.459 0.078,5.414 0.247,11.206 0.95,16.88 0.225,1.391 0.507,2.793 0.779,4.147 l 0.032,0.156 c 0.159,0.774 0.315,1.552 0.467,2.33 0.453,2.352 0.808,4.745 1.15,7.057 0.508,3.456 0.912,7.071 1.237,9.977 0.189,1.686 0.381,3.374 0.586,5.061 0.129,0.952 0.265,1.904 0.4,2.857 l 0.136,0.951 c 0.238,1.631 0.471,3.261 0.693,4.894 0.316,2.208 0.715,4.449 1.102,6.614 l 0.085,0.479 c 0.332,1.835 0.659,3.669 0.954,5.517 0.73,4.629 1.125,9.51 1.475,13.818 l 0.016,0.188 c 0.266,3.372 0.482,6.848 0.68,10.12 l 0.225,3.571 c 0.147,2.311 0.396,4.654 0.637,6.92 l 0.017,0.158 c 0.2,1.892 0.406,3.847 0.554,5.776 0.307,4.067 0.651,8.798 0.848,13.491 0.166,4.031 0.351,8.506 0.729,12.817 0.463,5.35 0.824,9.742 1.134,13.822 0.189,2.523 0.493,5.075 0.787,7.542 l 0.016,0.132 c 0.214,1.809 0.42,3.542 0.594,5.283 l 0.176,1.737 c 0.159,1.551 0.319,3.104 0.446,4.656 0.172,2.244 0.297,4.562 0.41,6.745 0.207,3.898 0.307,8.171 0.315,13.445 0,9.12 0.004,18.241 0.025,27.357 0.016,10.074 0.099,18.928 0.254,27.065 0.094,5.103 0.263,9.204 0.532,12.908 0.309,4.347 0.745,8.923 1.335,13.989 0.476,4.155 0.958,8.637 1.257,13.257 0.267,4.114 0.41,8.329 0.426,12.528 l 0.008,1.642 c 0.035,7.815 0.075,16.671 0.455,25.251 0.209,4.789 0.519,9.144 0.95,13.313 0.438,4.269 0.674,8.468 0.938,13.511 0.183,3.555 0.128,7.182 0.075,10.691 l -0.001,0.108 -0.029,2.171 c -0.029,2.196 -0.074,4.39 -0.131,6.585 -0.053,0.378 -0.09,0.754 -0.111,1.131 -0.033,0.52 -0.033,1.044 -0.033,1.569 -0.004,0.295 0,0.595 0.004,0.891 l 0.002,0.178 c 0.004,0.602 0.008,1.202 -0.026,1.802 -0.021,0.108 -0.046,0.211 -0.079,0.309 -0.056,0.216 -0.097,0.438 -0.138,0.662 -0.041,0.226 -0.082,0.448 -0.144,0.669 l -0.119,0.268 -0.156,0.34 c -0.462,0.323 -0.859,0.634 -1.252,0.949 l -0.447,0.288 c -0.171,0.038 -0.334,0.079 -0.498,0.14 -0.268,0.105 -0.561,0.211 -0.878,0.266 l -0.19,0.005 -0.214,-0.016 c -0.127,-0.013 -0.257,-0.017 -0.384,-0.017 -0.778,0 -1.631,0.18 -2.465,0.519 -0.229,0.09 -0.446,0.193 -0.663,0.303 -0.413,0.05 -0.822,0.108 -1.228,0.165 -0.332,0.049 -0.663,0.098 -0.991,0.139 -1.567,0.183 -2.824,0.288 -3.957,0.332 -0.52,0.017 -1.044,0.024 -1.569,0.024 -1.682,0 -3.4,-0.084 -5.061,-0.164 l -1.689,-0.082 c -2.384,-0.112 -4.791,-0.327 -7.253,-0.556 l -0.257,-0.021 c -1.286,-0.116 -2.6,-0.176 -3.906,-0.176 -1.029,0 -2.062,0.037 -3.071,0.111 l 0.144,0.33 c 0.506,1.008 1.104,1.915 1.846,2.967 l 0.169,0.239 c 0.611,0.866 1.224,1.735 1.854,2.591 l 0.642,0.81 c 0.84,1.056 1.679,2.112 2.503,3.182 0.647,0.847 1.27,1.716 1.888,2.584 l 0.329,0.456 0.563,0.781 c 1.134,1.352 2.158,2.405 3.222,3.316 1.126,0.807 2.287,1.538 3.578,2.341 l 1.183,0.741 c 1.537,0.972 3.247,1.944 5.381,3.059 1.557,0.816 3.348,1.845 4.831,3.298 0.569,0.561 1.118,1.143 1.667,1.725 l 0.63,0.663 c 1.475,1.548 3.197,2.953 4.697,4.147 1.062,0.812 2.311,1.764 3.452,2.74 0.877,0.754 1.902,1.629 2.973,2.478 0.371,0.277 0.75,0.548 1.132,0.821 l 0.105,0.075 c 1.615,1.161 3.275,2.351 4.526,3.906 0.727,0.903 1.443,1.929 2.254,3.227 0.893,1.421 1.681,2.712 2.261,4.13 0.916,2.226 0.93,4.759 0.042,7.53 -0.138,0.434 -0.298,0.865 -0.457,1.294 l -0.064,0.172 c -0.196,0.521 -0.389,1.04 -0.557,1.572 -0.732,2.367 -1.601,4.66 -2.584,6.817 -0.636,1.405 -1.408,2.795 -2.089,4.021 -0.287,0.513 -0.569,1.029 -0.852,1.549 -0.946,1.752 -1.896,3.501 -2.883,5.234 -2.237,3.918 -4.914,7.635 -7.474,11.07 -0.885,1.188 -1.774,2.359 -2.675,3.53 -0.631,0.852 -1.319,1.77 -2.007,2.683 l -0.155,0.208 c -1.694,2.258 -3.446,4.594 -5.115,6.929 l -1.139,1.614 -0.45,0.638 c -0.747,1.062 -1.474,2.091 -2.207,3.114 -0.498,0.694 -1.013,1.375 -1.526,2.055 l -0.194,0.258 c -0.725,0.954 -1.446,1.908 -2.134,2.887 -1.439,2.067 -2.809,4.239 -4.017,6.155 -1.028,1.632 -2.065,3.278 -3.133,4.861 -0.962,1.442 -1.904,2.904 -2.846,4.366 l -0.651,1.011 c -1.135,1.765 -2.277,3.531 -3.436,5.279 -4.591,6.945 -9.118,14.415 -13.456,22.2 -0.574,1.031 -1.147,2.068 -1.717,3.1 l -0.092,0.167 c -1.505,2.725 -3.062,5.544 -4.687,8.253 -1.41,2.348 -2.79,4.718 -4.168,7.085 l -0.214,0.369 c -0.819,1.404 -1.638,2.809 -2.461,4.21 -1.057,1.793 -2.126,3.583 -3.195,5.369 -1.11,1.846 -2.215,3.697 -3.308,5.552 -1.65,2.801 -3.291,5.776 -4.739,8.4 l -0.467,0.845 c -0.391,0.709 -0.783,1.418 -1.179,2.124 -1.395,2.503 -2.821,4.989 -4.247,7.473 l -0.368,0.644 c -2.803,4.87 -5.7,9.906 -8.35,15.053 -2.051,3.996 -4.051,8.032 -5.942,12 -0.55,1.154 -1.097,2.314 -1.643,3.473 l -0.401,0.851 c -1.159,2.474 -2.398,5.107 -3.682,7.703 -0.857,1.742 -1.785,3.487 -2.682,5.174 l -0.086,0.163 -0.148,0.27 c -0.741,1.392 -1.452,2.8 -2.162,4.204 l -0.106,0.21 -0.926,1.823 c -1.073,2.108 -2.125,4.228 -3.176,6.344 l -0.227,0.458 c -0.811,1.638 -1.622,3.272 -2.441,4.902 -0.671,1.339 -1.335,2.682 -1.999,4.025 l -0.163,0.331 c -1.22,2.469 -2.483,5.022 -3.78,7.5 -0.462,0.883 -0.918,1.77 -1.373,2.656 l -0.523,1.017 c -1.439,2.807 -2.743,5.333 -4.124,7.822 -2.363,4.276 -4.345,7.723 -6.238,10.849 -1.153,1.903 -2.264,3.879 -3.34,5.79 l -0.14,0.25 -0.08,0.143 c -0.998,1.775 -2.029,3.611 -3.094,5.386 -1.036,1.731 -2.177,3.434 -3.28,5.081 l -0.161,0.24 c -1.332,1.982 -2.688,4 -3.886,6.068 l -0.245,0.426 c -2.048,3.529 -4.141,7.138 -6.557,10.44 -1.207,1.645 -2.442,3.379 -3.776,5.303 -0.631,0.913 -1.249,1.839 -1.864,2.76 l -0.324,0.483 c -0.481,0.715 -0.961,1.429 -1.448,2.138 l -0.374,0.541 c -2.392,3.469 -4.865,7.056 -8.081,9.887 -1.958,1.72 -3.83,3.122 -5.723,4.289 -1.021,0.631 -2.081,1.22 -3.08,1.77 l -0.277,0.154 c -0.779,0.436 -1.558,0.87 -2.327,1.328 l -0.516,0.307 c -0.856,0.504 -1.624,0.962 -2.367,1.47 -0.889,0.616 -1.85,1.267 -2.85,1.851 -1.618,0.951 -3.402,1.937 -5.612,3.105 -4.605,2.44 -9.357,4.228 -12.983,5.513 -0.896,0.319 -1.798,0.627 -2.694,0.929 l -0.214,0.073 c -1.198,0.405 -2.392,0.81 -3.574,1.25 -0.913,0.34 -1.868,0.636 -2.847,0.934 l -0.118,0.036 c -1.165,0.361 -2.369,0.734 -3.514,1.209 l -0.114,0.049 c -1.22,0.54 -2.441,1.068 -3.67,1.588 -0.426,0.185 -0.856,0.369 -1.281,0.545 -1.223,0.56 -2.452,1.173 -3.65,1.77 l -0.269,0.134 c -1.406,0.705 -2.859,1.434 -4.321,2.081 -1.691,0.753 -3.456,1.392 -5.163,2.01 l -0.121,0.044 c -1.16,0.42 -2.324,0.841 -3.472,1.3 -1.277,0.577 -2.555,1.159 -3.82,1.773 -0.479,0.234 -0.963,0.459 -1.45,0.684 -0.838,0.385 -1.654,0.764 -2.424,1.175 -0.809,0.433 -1.607,0.882 -2.408,1.334 l -0.213,0.12 -0.1,0.057 c -1.74,0.98 -3.539,1.994 -5.396,2.814 -3.137,1.392 -6.495,2.576 -9.982,3.518 -0.704,0.193 -1.413,0.377 -2.121,0.561 -2.356,0.618 -4.748,1.246 -7.031,2.044 -1.562,0.689 -3.124,1.453 -4.643,2.268 -2.12,1.139 -4.41,2.079 -6.389,2.871 -0.578,0.242 -1.159,0.487 -1.732,0.737 -1.667,0.774 -2.985,1.513 -4.147,2.325 -0.76,0.653 -1.348,1.229 -1.849,1.813 -0.354,0.512 -0.672,1.062 -0.974,1.681 l 0.109,0.086 c 0.172,0.172 0.344,0.344 0.52,0.503 0.987,0.698 2.052,1.347 2.992,1.92 l 0.937,0.577 c 1.164,0.726 2.449,1.388 4.168,2.146 0.93,0.372 1.855,0.761 2.777,1.154 1.888,0.748 3.972,1.339 6.555,1.859 l 1.529,0.321 0.193,0.041 c 1.273,0.269 2.589,0.546 3.896,0.751 0.959,0.115 1.919,0.208 2.879,0.302 2.193,0.21 4.441,0.425 6.651,0.883 1.04,0.207 2.133,0.581 3.34,1.143 1.543,0.711 2.863,1.867 3.95,2.905 0.963,0.926 1.661,1.723 2.262,2.582 0.206,0.477 0.411,0.956 0.608,1.431 0.182,0.687 0.258,1.386 0.332,2.063 l 0.016,0.139 c 0.11,1.006 -0.058,2.057 -0.22,3.073 l -0.062,0.39 c -0.419,2.605 -1.054,6.01 -2.253,9.257 -1.035,2.817 -2.252,5.616 -3.429,8.323 l -0.409,0.933 c -1.379,3.468 -2.532,6.944 -3.423,10.331 -0.758,2.895 -1.448,5.858 -2.116,8.724 l -0.075,0.318 -0.552,2.368 c -0.852,3.629 -1.619,7.47 -2.347,11.74 l -0.516,2.994 c -0.467,2.715 -0.934,5.43 -1.356,8.153 -0.054,0.642 -0.063,1.293 -0.024,1.988 0.084,0.413 0.198,0.834 0.348,1.287 0.13,0.249 0.265,0.486 0.412,0.723 0.174,0.049 0.363,0.098 0.551,0.143 h 0.259 c 0.299,0 0.594,-0.013 0.892,-0.037 1.242,-0.24 2.565,-0.641 4.043,-1.224 l 0.446,-0.209 c 1.037,-0.483 2.096,-0.976 3.046,-1.617 0.44,-0.361 0.874,-0.736 1.307,-1.112 l 0.318,-0.275 c 0.712,-0.618 1.421,-1.233 2.158,-1.819 1.641,-1.3 3.446,-2.543 5.517,-3.796 1.921,-1.169 3.54,-2.139 5.198,-3.072 1.978,-1.115 3.84,-2.402 5.4,-3.513 1.561,-1.258 3.075,-2.617 4.539,-3.931 l 0.191,-0.172 c 1.882,-1.689 3.923,-3.192 5.897,-4.645 l 0.095,-0.069 c 1.569,-1.255 2.945,-2.471 4.204,-3.718 1.503,-1.486 2.99,-2.985 4.476,-4.492 0.831,-0.84 1.688,-1.655 2.548,-2.47 l 0.299,-0.285 c 0.499,-0.474 0.999,-0.949 1.49,-1.431 0.492,-0.483 0.979,-0.974 1.462,-1.47 0.913,-0.934 1.858,-1.899 2.855,-2.785 1.661,-1.479 3.162,-2.77 4.591,-3.948 1.546,-1.28 3.013,-2.678 4.308,-3.911 l 0.63,-0.598 c 1.25,-1.182 2.608,-2.308 3.806,-3.301 l 1.146,-0.958 c 0.586,-0.488 1.184,-0.962 1.782,-1.434 l 0.544,-0.434 c 0.278,-0.217 0.552,-0.44 0.825,-0.661 0.875,-0.711 1.836,-1.491 2.85,-2.096 0.934,-0.558 1.989,-0.962 3.009,-1.353 l 0.642,-0.24 1.109,-0.496 c 1.495,-0.667 2.972,-1.327 4.481,-1.843 2.282,-0.785 4.752,-0.909 6.65,-0.93 0.792,0 1.51,0.079 2.203,0.155 l 0.644,0.066 c 1.274,0.127 2.57,0.313 3.895,0.508 1.14,0.167 2.288,0.391 3.397,0.609 l 0.261,0.05 c 0.849,0.169 1.696,0.336 2.547,0.479 2.092,0.26 3.682,0.419 5.155,0.516 1.279,0.092 2.586,0.129 3.85,0.165 0.937,0.028 1.776,0.052 2.616,0.089 3.907,0.18 7.976,0.527 12.094,1.032 l 2.097,0.254 c 3.784,0.449 7.697,0.913 11.512,1.757 2.318,0.508 4.332,0.91 6.156,1.229 l 1.498,0.258 c 1.403,0.236 3.148,0.531 4.804,0.881 0.928,0.192 1.856,0.407 2.784,0.621 l 0.411,0.095 c 1.06,0.25 2.121,0.495 3.186,0.721 l 1.22,0.25 0.285,0.059 c 1.667,0.349 3.39,0.709 5.064,1.12 3.984,0.984 7.65,1.738 11.207,2.305 1.865,0.223 3.85,0.453 5.815,0.602 1.085,0.09 2.175,0.144 3.264,0.197 0.954,0.046 1.89,0.091 2.826,0.155 2.58,0.192 4.828,0.466 6.873,0.836 2.038,0.372 4.021,0.907 5.939,1.426 0.849,0.229 1.731,0.412 2.583,0.59 1.233,0.256 2.524,0.523 3.74,0.925 1.333,0.44 2.65,0.98 3.924,1.503 0.512,0.212 1.028,0.42 1.544,0.628 l 0.299,0.117 c 1.009,0.401 2.005,0.798 2.962,1.233 0.867,0.391 1.683,0.9 2.472,1.392 l 0.227,0.145 c 1.705,1.058 3.49,2.423 5.62,4.297 2.131,1.876 3.509,3.912 4.213,6.225 0.57,1.86 0.809,3.872 0.988,5.613 0.095,0.969 0.147,1.936 0.201,3.01 0.04,0.803 0.081,1.601 0.147,2.4 0.143,1.764 0.353,3.494 0.52,4.803 l 0.049,0.373 c 0.282,1.977 0.573,4.023 0.746,6.065 0.145,1.858 0.344,3.816 0.61,5.987 0.576,3.887 1.326,7.694 2.108,11.577 0.888,4.447 1.884,8.804 2.961,12.948 l 0.136,0.508 c 0.478,1.842 0.954,3.677 1.322,5.513 0.465,2.332 0.763,4.687 0.885,7 0.11,2.167 0.078,4.34 -0.098,6.644 -0.156,1.987 -0.446,4.569 -1.307,6.916 -0.47,1.289 -1.048,2.553 -1.602,3.727 -0.123,0.263 -0.238,0.531 -0.355,0.8 l -0.091,0.211 c -0.209,0.489 -0.418,0.976 -0.66,1.442 -0.233,0.455 -0.479,0.898 -0.733,1.336 -0.383,0.681 -0.88,1.287 -1.36,1.873 l -0.152,0.188 -0.255,0.219 -0.25,0.217 c -0.441,0.36 -0.915,0.713 -1.41,1.049 -1.153,0.817 -2.397,1.373 -3.573,1.872 l 0.217,-0.133 c -3.504,1.59 -7.033,3.415 -10.777,5.596 l -1.421,0.839 c -1.324,0.786 -2.619,1.548 -3.912,2.24 -0.361,0.196 -0.725,0.388 -1.09,0.579 l -0.441,0.232 c -1.147,0.597 -2.447,1.273 -3.644,2.003 -1.319,0.804 -2.602,1.78 -3.734,2.64 l -1.016,0.767 c -1.466,1.096 -3.226,2.345 -5.162,3.301 -1.068,0.534 -2.148,1.044 -3.229,1.554 l -0.75,0.357 c -0.657,0.312 -1.314,0.625 -1.967,0.943 -1.257,0.618 -2.508,1.297 -3.717,1.953 l -0.296,0.161 -0.375,0.203 c -0.447,0.243 -0.894,0.486 -1.345,0.726 -4.004,2.138 -8.213,3.869 -12.282,5.544 -3.374,1.458 -5.919,2.533 -8.257,3.487 -2.204,0.975 -4.423,2.084 -6.379,3.063 l -0.111,0.053 c -2.216,1.11 -4.544,2.084 -6.414,2.867 -1.462,0.626 -2.9,1.305 -4.492,2.064 -0.573,0.272 -1.128,0.535 -1.687,0.794 -1.598,0.754 -3.211,1.471 -4.825,2.183 l -0.915,0.406 -1.316,0.585 c -0.563,0.253 -1.123,0.513 -1.683,0.773 l -0.496,0.23 c -1.628,0.757 -3.312,1.54 -5.013,2.204 -1.106,0.434 -2.22,0.84 -3.334,1.245 l -0.316,0.116 c -0.788,0.289 -1.578,0.579 -2.362,0.875 -0.828,0.394 -1.646,0.83 -2.447,1.256 l -0.292,0.156 c -0.792,0.425 -1.576,0.845 -2.371,1.233 -2.131,1.045 -4.301,1.879 -6.452,2.479 -1.421,0.401 -2.846,0.77 -4.272,1.134 l -1.92,0.499 c -1.649,0.43 -3.326,0.987 -5.126,1.704 -0.814,0.384 -1.633,0.762 -2.452,1.141 l -0.889,0.411 -0.304,0.139 c -2.413,1.115 -4.908,2.266 -7.317,3.48 l -0.541,0.275 c -1.601,0.811 -3.203,1.622 -4.816,2.408 -2.04,1.003 -4.194,1.87 -6.095,2.634 l -0.618,0.266 c -1.118,0.479 -2.232,0.958 -3.333,1.462 -1.672,0.774 -3.483,1.581 -5.395,2.232 -1.198,0.413 -2.405,0.798 -3.611,1.182 -2.128,0.683 -4.238,1.36 -6.266,2.147 -1.736,0.78 -3.373,1.63 -5.179,2.58 -1.789,0.942 -3.692,1.769 -5.37,2.498 l -0.553,0.238 -0.913,0.401 c -1.547,0.678 -3.065,1.343 -4.537,2.044 -1.002,0.475 -1.989,0.988 -2.972,1.499 l -0.124,0.065 c -0.852,0.446 -1.704,0.889 -2.568,1.31 -2.373,1.161 -4.812,2.29 -7.169,3.382 l -0.117,0.054 c -1.216,0.566 -2.432,1.131 -3.649,1.7 -0.837,0.393 -1.681,0.776 -2.523,1.158 l -0.29,0.132 c -1.089,0.492 -2.174,0.983 -3.252,1.491 -0.845,0.402 -1.684,0.815 -2.525,1.228 l -0.3,0.148 -0.228,0.112 c -0.947,0.466 -1.892,0.931 -2.848,1.378 -1.443,0.688 -2.849,1.442 -4.406,2.285 l -1.408,0.758 c -1.94,1.038 -3.886,1.968 -6.046,2.99 -1.825,0.861 -3.664,1.786 -5.467,2.747 l -0.13,0.074 c -0.818,0.438 -1.835,0.983 -2.76,1.564 -0.75,0.475 -1.477,1.015 -2.18,1.537 l -0.125,0.092 -0.418,0.312 c -1.77,1.378 -3.371,2.615 -5.037,3.788 -0.689,0.492 -1.492,0.939 -2.455,1.365 -0.837,0.373 -1.563,0.656 -2.282,0.889 -0.914,0.3 -1.91,0.41 -2.873,0.516 l -0.397,0.045 c -0.32,0.041 -0.648,0.05 -0.98,0.05"
             style="fill:#050000;fill-opacity:1;fill-rule:nonzero;stroke:none"
             id="path46"
             inkscape:connector-curvature="0" /></g><g
           id="g48"
           transform="translate(976.3994,1570.9863)"><path
             d="m 0,0 c -0.653,0 -1.317,-0.058 -2.029,-0.176 -1.402,-0.241 -2.699,-0.833 -3.742,-1.307 -1.699,-0.768 -3.127,-1.686 -4.368,-2.808 -0.671,-0.61 -1.307,-1.288 -1.922,-1.943 l -0.42,-0.445 c -1.465,-1.543 -2.773,-2.943 -3.953,-4.46 l -0.369,-0.479 c -0.467,-0.607 -0.886,-1.152 -1.334,-1.65 l -0.291,-0.324 c -0.628,-0.695 -1.246,-1.377 -1.831,-2.084 -1.33,-1.605 -2.594,-3.404 -4.096,-5.833 -0.456,-0.736 -0.937,-1.457 -1.42,-2.181 l -0.099,-0.149 c -0.569,-0.852 -1.139,-1.708 -1.671,-2.585 -0.656,-1.073 -1.286,-2.158 -1.917,-3.247 l -0.371,-0.638 -0.747,-1.279 c -1.266,-2.153 -2.688,-4.361 -4.349,-6.752 -1.44,-2.063 -3.03,-4.339 -4.317,-6.759 -0.546,-1.022 -1.059,-2.085 -1.556,-3.113 l -0.086,-0.18 c -0.532,-1.107 -1.194,-2.485 -1.892,-3.758 -0.983,-1.794 -2.179,-3.598 -3.762,-5.675 -0.948,-1.219 -2.065,-2.67 -3.166,-4.182 -0.832,-1.134 -1.602,-2.292 -2.45,-3.579 l -0.729,-1.102 c -1.019,-1.527 -2.019,-3.067 -3.018,-4.611 -1.048,-1.622 -2.096,-3.24 -3.169,-4.845 -1.058,-1.574 -2.183,-3.151 -3.338,-4.762 l -0.196,-0.274 c -0.988,-1.38 -2.01,-2.807 -2.974,-4.239 -0.774,-1.147 -1.519,-2.323 -2.261,-3.498 -1.03,-1.633 -2.312,-3.666 -3.66,-5.483 -0.977,-1.212 -2.021,-2.401 -3.031,-3.551 l -0.143,-0.163 c -1.008,-1.147 -2.014,-2.291 -2.961,-3.449 -1.528,-1.866 -2.994,-3.835 -4.411,-5.74 l -0.077,-0.104 -0.382,-0.512 c -0.449,-0.602 -0.897,-1.205 -1.35,-1.802 -0.578,-0.734 -1.453,-1.835 -2.388,-2.915 -0.794,-0.908 -1.689,-1.803 -2.407,-2.522 l -0.557,-0.557 -0.113,-0.114 c -0.971,-0.983 -2.071,-2.095 -3.033,-3.302 -1.222,-1.534 -2.394,-3.193 -3.58,-5.071 -0.687,-1.086 -1.293,-2.231 -1.958,-3.506 l -0.315,-0.606 c -0.889,-1.689 -1.678,-3.263 -2.413,-4.813 -0.687,-1.446 -1.286,-2.954 -1.814,-4.284 -0.107,-0.711 -0.309,-1.451 -0.619,-2.265 -0.163,-0.426 -0.323,-0.856 -0.483,-1.286 -0.247,-0.922 -0.413,-1.753 -0.508,-2.541 0.004,-0.178 0.016,-0.354 0.028,-0.53 0.102,-1.569 -0.017,-2.811 -0.376,-3.907 l 0.065,-0.325 c 0.264,-1.566 0.385,-2.888 0.381,-4.163 -0.004,-0.47 -0.025,-0.929 -0.07,-1.375 0.021,-0.117 0.038,-0.232 0.054,-0.351 0.031,-0.229 0.055,-0.459 0.078,-0.685 0.111,-0.41 0.221,-0.77 0.34,-1.127 0.091,-0.151 0.19,-0.298 0.291,-0.446 l 0.201,-0.297 c 0.318,-0.478 0.637,-1.038 0.979,-1.715 l 0.164,-0.287 0.163,-0.283 -0.044,0.208 c 0.032,-0.139 0.105,-0.256 0.164,-0.344 0.315,-0.365 0.623,-0.738 0.921,-1.118 0.152,-0.192 0.299,-0.388 0.413,-0.605 0.323,-0.617 0.659,-1.284 0.925,-1.977 0.504,-0.3 0.999,-0.594 1.47,-0.922 0.54,-0.43 1.097,-0.848 1.65,-1.261 l 0.582,-0.438 c 0.779,-0.588 1.521,-1.107 2.385,-1.533 1.23,-0.615 2.417,-1.146 3.629,-1.622 0.752,-0.294 1.514,-0.55 2.274,-0.804 1.013,-0.34 1.862,-0.628 2.702,-0.965 1.407,-0.593 2.561,-1.053 3.633,-1.446 0.576,-0.212 1.152,-0.405 1.729,-0.596 0.777,-0.26 1.551,-0.522 2.316,-0.816 1.555,-0.677 2.802,-1.195 3.924,-1.63 1.019,-0.467 2.022,-0.971 3.025,-1.474 l 1.049,-0.525 c 1.682,-0.835 3.508,-1.632 5.582,-2.437 1.799,-0.694 3.602,-1.159 5.772,-1.696 1.977,-0.491 3.934,-1.182 5.933,-1.907 0.957,-0.422 1.907,-0.856 2.858,-1.29 l 0.282,-0.129 c 1.452,-0.663 2.952,-1.348 4.46,-1.952 2.435,-0.976 5.121,-1.78 8.213,-2.457 1.428,-0.305 2.856,-0.723 4.116,-1.092 1.371,-0.407 2.809,-0.728 4.484,-1.01 1.323,-0.22 2.88,-0.507 4.398,-0.966 1.196,-0.367 2.369,-0.806 3.566,-1.261 0.859,-0.421 1.67,-0.907 2.479,-1.485 l 1.012,-0.717 c 0.54,-0.381 1.085,-0.765 1.621,-1.159 l 0.09,-0.065 c 0.108,-0.205 0.214,-0.41 0.317,-0.623 0.278,-0.766 0.522,-1.461 0.691,-2.201 0.068,-1.181 -0.032,-2.376 -0.131,-3.404 -0.107,-1.159 -0.238,-2.318 -0.381,-3.476 l -0.062,-0.442 c -0.224,-1.559 -0.478,-3.327 -0.516,-5.039 l -0.036,-2.4 c -0.021,-1.335 -0.041,-2.666 -0.079,-4.001 -0.098,-3.778 -0.369,-7.469 -0.806,-10.97 -0.152,-1.04 -0.32,-2.08 -0.487,-3.12 -0.197,-1.229 -0.394,-2.462 -0.574,-3.694 l -0.024,-0.177 -0.131,-0.946 0.172,0.943 c -0.303,-1.815 -0.619,-3.657 -0.926,-5.439 l -0.069,-0.401 c -0.272,-1.577 -0.471,-3.253 -0.631,-4.6 l -0.071,-0.576 c -0.065,-0.538 -0.131,-1.077 -0.204,-1.615 -0.204,-1.506 -0.405,-3.018 -0.589,-4.533 -0.099,-0.844 -0.177,-1.692 -0.254,-2.539 -0.076,-0.836 -0.149,-1.632 -0.242,-2.425 -0.381,-3.292 -0.774,-6.588 -1.184,-9.881 l -0.175,-1.269 c -0.19,-1.343 -0.378,-2.674 -0.553,-4.01 -0.099,-0.766 -0.181,-1.532 -0.258,-2.302 l -0.055,-0.496 c -0.054,-0.498 -0.109,-0.996 -0.17,-1.494 l -0.019,-0.131 c -0.21,-1.542 -0.427,-3.136 -0.534,-4.706 l -0.14,-1.998 -0.143,-2.011 c -0.09,-1.305 -0.192,-2.782 -0.045,-4.208 0.207,-1.95 0.467,-3.502 0.819,-4.883 0.312,-1.235 0.792,-2.46 1.467,-3.745 0.472,-0.911 1.297,-1.797 2.322,-2.494 1.028,-0.71 2.133,-1.103 3.477,-1.234 0.189,-0.017 0.378,-0.025 0.567,-0.025 1.818,0 3.557,0.791 4.869,1.48 1.117,0.581 2.097,1.497 2.927,2.311 1.65,1.626 3.027,3.565 4.359,5.44 l 0.257,0.361 c 0.281,0.397 0.563,0.792 0.848,1.183 0.966,1.197 2.113,2.597 3.292,3.902 0.634,0.703 1.284,1.397 1.93,2.088 0.642,0.684 1.264,1.352 1.878,2.027 1.983,2.198 3.741,4.587 5.44,6.898 0.676,0.921 1.355,1.842 2.047,2.756 l 0.094,0.126 0.83,1.086 0.358,0.471 0.61,0.807 c 1.016,1.236 2.019,2.477 2.998,3.739 l 0.066,0.085 0.114,0.148 0.758,0.983 1.052,1.323 c 1.18,1.474 2.517,3.146 3.715,4.816 0.295,0.407 0.578,0.824 0.862,1.242 l 0.141,0.208 c 0.385,0.565 0.77,1.13 1.171,1.683 0.467,0.646 0.935,1.283 1.405,1.922 l 0.324,0.441 0.651,0.88 c 2.165,2.758 4.201,5.223 6.224,7.535 1.959,2.242 4.166,4.392 6.114,6.29 l 1.073,1.048 0.352,0.348 c 2.264,2.22 4.606,4.515 6.611,7.041 1.398,1.764 2.746,3.612 4.05,5.399 0.909,1.248 1.794,2.456 2.694,3.647 l 0.926,1.196 0.934,1.196 c 1.47,1.867 2.936,3.743 4.381,5.635 0.942,1.238 1.856,2.542 2.739,3.803 l 1.087,1.546 c 1.257,1.769 2.518,3.538 3.792,5.291 l 1.011,1.413 c 0.803,1.122 1.606,2.239 2.433,3.341 0.454,0.578 0.901,1.151 1.348,1.728 l 0.843,1.048 0.421,0.525 c 1.495,1.86 3.19,3.968 4.674,6.102 0.533,0.762 1.042,1.546 1.553,2.33 l 0.139,0.214 0.72,1.117 c 0.882,1.346 1.731,2.561 2.596,3.714 1.994,2.497 4.244,5.133 7.08,8.293 0.461,0.517 0.913,1.043 1.365,1.569 0.773,0.895 1.564,1.813 2.395,2.673 1.043,1.086 2.153,2.144 3.226,3.167 l 0.193,0.183 0.364,0.344 c 2.562,2.438 5.258,5.06 7.594,7.933 1.427,1.761 2.769,3.632 4.068,5.441 l 0.072,0.1 0.063,0.088 c 0.822,1.15 1.641,2.296 2.492,3.422 0.959,1.203 1.975,2.397 2.956,3.551 l 0.084,0.114 0.008,-0.007 c 1.747,2.049 3.555,4.168 5.119,6.429 0.463,0.67 0.913,1.38 1.417,2.233 0.734,1.242 1.38,2.631 1.971,4.248 0.72,1.965 1.208,4.024 1.491,6.297 0.115,0.956 0.078,1.969 0.05,2.782 l -0.009,0.316 c -0.028,1.127 -0.086,2.051 -0.181,2.908 -0.132,1.188 -0.322,2.595 -0.724,4.015 -0.326,1.166 -0.798,2.263 -1.336,3.474 -0.811,1.83 -2.104,3.673 -3.843,5.479 -1.417,1.47 -2.839,2.936 -4.271,4.39 -1.321,1.332 -2.649,2.653 -3.978,3.972 l -0.455,0.453 c -1.186,1.178 -2.37,2.355 -3.541,3.544 -2.666,2.699 -5.345,5.39 -8.023,8.072 l -1.372,1.384 c -1.004,1.02 -2.006,2.036 -3.031,3.035 -0.769,0.745 -1.548,1.474 -2.347,2.191 -0.433,0.391 -0.888,0.759 -1.343,1.127 l -0.197,0.159 c -0.347,0.279 -0.696,0.557 -1.036,0.848 -1.559,1.319 -3.038,2.78 -4.467,4.193 l -0.36,0.356 c -0.88,0.863 -1.894,1.658 -2.79,2.36 -0.663,0.52 -1.322,1.04 -1.953,1.593 l -0.176,0.151 c -1.361,1.199 -2.904,2.559 -4.46,3.829 -1.586,1.288 -3.07,2.644 -4.455,3.923 -1.032,0.95 -2.089,1.868 -3.15,2.785 -1.663,1.439 -3.549,3.069 -5.212,4.787 l -0.988,1.024 c -0.967,1.015 -2.172,2.279 -3.403,3.379 -1.488,1.329 -2.95,2.737 -4.468,4.303 -2.829,2.92 -5.82,6.08 -8.517,9.398 -1.542,1.895 -3.265,3.681 -4.932,5.408 l -0.101,0.106 c -1.201,1.242 -2.392,2.474 -3.51,3.73 -1.255,1.407 -2.601,2.854 -4.002,4.3 -1.338,1.375 -2.567,2.889 -3.755,4.352 l -0.098,0.12 -0.213,0.266 c -2.416,2.997 -5.277,6.43 -8.646,9.232 -3.386,2.812 -7.222,4.696 -11.94,6.66 l -0.25,0.107 C 8.707,-1.846 7.001,-1.136 5.24,-0.721 4.076,-0.446 2.776,-0.233 1.267,-0.07 0.857,-0.025 0.443,0 0,0"
             style="fill:#050000;fill-opacity:1;fill-rule:nonzero;stroke:none"
             id="path50"
             inkscape:connector-curvature="0" /></g><g
           id="g52"
           transform="translate(1123.542,1433.9834)"><path
             d="m 0,0 c -1.477,0 -2.776,-0.298 -3.973,-0.91 -2.204,-1.125 -3.947,-3.186 -5.544,-5.2 -1.115,-1.416 -2.119,-2.859 -3.068,-4.411 -1.32,-1.218 -2.586,-2.587 -3.759,-4.066 l -0.282,-0.344 c -1.053,-1.31 -2.142,-2.665 -2.868,-4.188 l -0.205,-0.425 c -0.403,-0.837 -0.78,-1.619 -1.049,-2.426 -0.226,-0.659 -0.458,-1.314 -0.721,-1.966 l -0.073,-0.167 -0.069,-0.164 c -0.176,-0.387 -0.36,-0.775 -0.544,-1.164 -0.418,-0.62 -0.832,-1.238 -1.245,-1.861 -2.396,-3.595 -4.78,-7.199 -7.138,-10.819 l -1.397,-2.15 -0.319,-0.491 c -2.188,-3.369 -4.451,-6.852 -6.721,-10.247 -0.651,-0.971 -1.29,-1.945 -1.928,-2.924 l -0.144,-0.221 c -0.778,-1.188 -1.612,-2.329 -2.399,-3.395 -1.291,-1.76 -2.647,-3.518 -3.958,-5.217 l -0.424,-0.549 c -1.551,-1.978 -2.849,-3.594 -4.083,-5.086 -1.147,-1.389 -2.407,-2.798 -3.419,-3.931 l -1.192,-1.335 c -3.499,-3.964 -6.684,-8.165 -9.068,-11.381 -4.234,-5.714 -8.413,-11.843 -12.101,-17.25 l -3.252,-4.757 c -3.548,-5.157 -6.538,-9.42 -9.677,-13.577 l -0.986,-1.2 c -0.77,-0.937 -1.536,-1.871 -2.298,-2.813 l -0.135,-0.168 -0.672,-0.831 -0.196,-0.246 -0.082,-0.098 c -0.191,-0.203 -0.36,-0.428 -0.501,-0.669 l -0.093,-0.118 -0.094,-0.123 -0.877,-1.13 -0.139,-0.184 c -0.201,-0.209 -0.376,-0.432 -0.537,-0.681 -1.269,-1.596 -2.551,-3.185 -3.845,-4.766 -1.133,-1.391 -2.437,-2.776 -3.484,-3.89 l -0.399,-0.426 -0.813,-0.872 -0.476,-0.516 -0.207,-0.224 c -1.23,-1.327 -2.502,-2.7 -3.794,-4.014 -1.472,-1.502 -3.038,-2.962 -4.552,-4.374 l -0.394,-0.368 -1.528,-1.425 c -2.7,-2.514 -5.445,-5.07 -7.966,-7.753 -3.052,-3.25 -5.937,-6.68 -8.727,-9.997 l -0.213,-0.25 -1.212,-1.462 c -0.5,-0.606 -1.003,-1.212 -1.511,-1.814 -0.381,-0.451 -0.77,-0.893 -1.163,-1.335 -0.578,-0.652 -1.155,-1.307 -1.704,-1.983 -1.4,-1.726 -2.756,-3.541 -4.068,-5.296 l -0.257,-0.343 c -0.532,-0.717 -1.069,-1.438 -1.609,-2.15 -0.766,-0.962 -1.54,-1.917 -2.318,-2.871 l -0.113,-0.139 c -1.446,-1.782 -2.941,-3.624 -4.334,-5.492 -1.995,-2.669 -4.111,-5.533 -6.144,-8.608 -1.265,-1.912 -2.509,-3.893 -3.711,-5.808 l -0.257,-0.409 c -2.434,-3.886 -4.951,-7.906 -7.781,-11.651 -1.294,-1.671 -2.904,-3.752 -4.361,-5.885 -1.261,-1.837 -2.547,-3.827 -4.047,-6.262 -1.132,-1.838 -2.386,-3.756 -3.948,-6.036 -0.401,-0.582 -0.794,-1.172 -1.187,-1.761 -0.875,-1.31 -1.866,-2.794 -2.936,-4.185 l 0.311,0.335 c -1.564,-1.962 -2.804,-3.59 -3.919,-5.11 -0.442,-0.602 -0.876,-1.208 -1.311,-1.814 l -0.28,-0.391 c -0.615,-0.853 -1.229,-1.707 -1.866,-2.542 -1.404,-1.849 -2.393,-3.335 -3.207,-4.821 -0.801,-1.462 -1.747,-2.971 -2.891,-4.614 -0.846,-1.206 -1.584,-2.503 -2.297,-3.758 l -0.59,-1.043 c -1.048,-1.816 -1.758,-3.921 -2.111,-6.257 -0.098,-0.647 -0.18,-1.319 -0.241,-2.044 -0.037,-0.537 0.086,-1.264 0.176,-1.795 l 0.029,-0.165 c 0.127,-0.736 0.332,-1.477 0.627,-2.267 0.491,-1.348 1.016,-2.373 1.651,-3.225 0.493,-0.661 0.964,-1.294 1.471,-1.877 1.324,-1.52 2.988,-2.844 4.946,-3.933 0.734,-0.414 1.49,-0.791 2.244,-1.165 l 0.104,-0.04 -0.005,-0.01 1.138,-0.571 c 0.639,-0.328 1.274,-0.667 1.909,-1.007 0.45,-0.242 0.901,-0.48 1.355,-0.717 1.214,-0.64 2.562,-1.234 4.371,-1.929 0.651,-0.255 1.315,-0.471 1.979,-0.684 l 0.284,-0.095 c 0.446,-0.148 0.89,-0.296 1.329,-0.454 1.076,-0.395 2.118,-0.831 3.271,-1.319 l 0.201,-0.082 c 1.238,-0.525 2.487,-0.949 3.764,-1.372 0.809,-0.272 1.647,-0.503 2.458,-0.726 l 0.204,-0.056 0.852,-0.233 c 1.093,-0.304 2.212,-0.675 3.325,-1.102 1.341,-0.634 2.639,-1.407 3.894,-2.156 l 0.986,-0.583 c 1.484,-0.876 3.128,-1.714 5.173,-2.638 2.231,-1.003 3.878,-1.882 5.339,-2.849 0.612,-0.41 1.211,-0.836 1.812,-1.265 l 0.161,-0.115 c 1.116,-0.803 2.126,-1.519 3.191,-2.147 1.431,-0.848 2.938,-1.571 4.395,-2.269 l 0.807,-0.385 c 1.49,-0.721 2.961,-1.6 4.259,-2.375 l 0.921,-0.544 c 1.8,-1.064 3.579,-2.004 5.439,-2.876 0.857,-0.401 1.725,-0.782 2.593,-1.159 0.749,-0.323 1.503,-0.651 2.244,-0.99 1.715,-0.793 3.391,-1.62 4.98,-2.457 1.677,-0.885 3.46,-1.515 5.447,-2.188 l 0.824,-0.283 c 3.131,-1.067 6.368,-2.17 9.529,-3.394 0.734,-0.323 1.465,-0.657 2.196,-0.992 0.839,-0.385 1.67,-0.766 2.509,-1.125 2.15,-0.931 4.379,-1.717 6.627,-2.335 2.152,-0.593 4.369,-0.89 6.444,-1.123 0.523,-0.054 1.05,-0.082 1.566,-0.082 1.689,0 3.408,0.298 4.971,0.861 3.963,1.425 7.8,4.125 10.804,7.604 0.641,0.746 1.268,1.503 1.895,2.261 l 0.255,0.307 c 0.609,0.741 1.22,1.478 1.842,2.207 0.634,0.745 1.274,1.482 1.917,2.223 0.704,0.811 1.409,1.626 2.109,2.445 0.806,0.946 1.587,1.911 2.368,2.877 0.474,0.588 0.949,1.174 1.428,1.756 0.864,1.052 1.736,2.084 2.613,3.12 l 1.188,1.408 c 0.437,0.525 0.876,1.041 1.318,1.561 l 0.139,0.163 c 0.764,0.895 1.527,1.789 2.262,2.708 0.781,0.981 1.524,1.983 2.281,3.01 0.351,0.479 0.708,0.959 1.064,1.433 0.931,1.123 2,2.279 3.468,3.746 l 0.127,0.127 0.233,0.238 c 0.512,0.517 1.022,1.032 1.512,1.569 0.702,0.768 1.351,1.577 1.979,2.359 l 0.216,0.27 c 1.749,2.186 3.444,4.478 5.083,6.694 l 0.115,0.154 0.502,0.678 c 0.417,0.564 0.832,1.127 1.251,1.685 0.678,0.848 1.387,1.666 2.104,2.489 l 0.229,0.267 c 1.275,1.484 2.43,3.032 3.546,4.53 0.713,0.957 1.411,1.919 2.108,2.883 l 0.326,0.45 0.156,0.216 c 0.951,1.317 1.904,2.636 2.886,3.929 0.896,1.133 1.719,2.113 2.519,2.997 0.754,0.84 1.575,1.641 2.37,2.415 0.471,0.459 0.938,0.918 1.397,1.384 2.051,2.096 3.925,4.44 5.737,6.708 l 1.167,1.451 c 2.037,2.527 4.043,5.074 6.041,7.622 1.302,1.66 2.555,3.398 3.766,5.078 0.814,1.134 1.611,2.244 2.431,3.337 1.148,1.433 2.331,2.745 3.615,4.009 l 0.967,0.95 0.317,0.312 c 1.08,1.066 2.191,2.16 3.254,3.271 1.231,1.29 2.448,2.597 3.664,3.902 l 0.395,0.423 c 1.482,1.593 2.965,3.186 4.475,4.759 2.445,2.541 4.752,5.282 6.985,7.933 l 1.067,1.269 c 2.188,2.593 4.652,5.088 6.826,7.289 l 1.622,1.65 c 0.495,0.508 0.988,1.029 1.474,1.544 0.726,0.766 1.454,1.528 2.203,2.269 0.773,0.762 1.563,1.505 2.353,2.248 l 0.395,0.373 0.385,0.36 c 0.389,0.364 0.778,0.727 1.163,1.094 2.63,2.503 5.124,5.23 7.537,7.867 l 0.769,0.836 c 0.823,0.901 1.663,1.781 2.505,2.661 1.586,1.656 3.384,3.532 4.953,5.493 1.601,2.012 3.215,4.184 4.513,5.93 l 0.64,0.856 c 0.642,0.858 1.283,1.716 1.932,2.568 l 0.298,0.38 c 0.99,1.255 2.012,2.553 3.121,3.734 1.395,1.491 2.913,2.873 4.348,4.16 1.385,1.243 2.592,2.372 3.691,3.454 0.663,0.663 1.318,1.335 1.969,2.006 l 0.254,0.261 c 0.6,0.614 1.2,1.229 1.81,1.832 1.045,1.036 2.113,2.051 3.178,3.063 l 1.31,1.245 c 0.954,0.913 1.889,1.847 2.818,2.785 l 1.098,1.097 c 0.422,0.422 0.839,0.848 1.253,1.278 0.34,0.348 0.684,0.7 1.027,1.044 l 0.5,0.5 c 0.548,0.543 1.115,1.105 1.635,1.696 1.068,1.215 2.353,2.644 3.779,4.017 0.463,0.446 0.934,0.888 1.409,1.326 0.847,0.792 1.659,1.549 2.421,2.327 1.579,1.611 2.942,3.428 4.067,4.993 1.226,1.704 2.292,3.534 3.322,5.304 l 0.053,0.095 c 0.775,1.32 1.274,2.342 1.668,3.417 0.483,1.311 0.664,2.715 0.795,3.929 0.246,2.335 -0.374,4.739 -0.922,6.86 -0.451,1.754 -1.073,3.801 -2.27,5.683 -1.146,1.809 -2.617,3.41 -4.039,4.959 -1.338,1.455 -2.777,2.897 -4.136,4.249 -0.445,0.444 -0.885,0.892 -1.325,1.34 -0.752,0.769 -1.498,1.527 -2.267,2.264 -1.259,1.204 -2.246,2.215 -3.108,3.181 -1.168,1.304 -2.472,2.517 -3.734,3.69 l -0.079,0.074 c -0.938,0.873 -1.83,1.704 -2.67,2.556 -3.33,3.367 -7.259,6.153 -11.059,8.847 l -0.397,0.282 -0.088,0.101 -0.09,0.106 -0.5,0.57 c -0.705,0.809 -1.413,1.621 -2.163,2.383 -0.68,0.693 -1.277,1.44 -1.772,2.08 -0.265,0.344 -0.543,0.67 -0.826,1.001 l -0.072,0.084 -0.45,0.533 -0.27,0.368 c -0.709,0.983 -1.513,2.097 -2.359,3.162 -0.507,0.634 -1.06,1.252 -1.596,1.851 -0.357,0.397 -0.661,0.737 -0.956,1.081 -0.93,1.078 -1.849,2.128 -2.842,3.126 -1.283,1.278 -2.308,2.252 -3.326,3.157 -0.506,0.45 -1.002,0.916 -1.497,1.382 -0.534,0.502 -1.066,1.002 -1.611,1.485 -0.777,0.686 -1.489,1.432 -2.178,2.154 l -0.367,0.381 -0.37,0.384 c -0.441,0.453 -0.921,0.875 -1.385,1.284 -0.575,0.504 -1.176,1.03 -1.703,1.604 -0.979,1.054 -1.844,2.052 -2.642,3.05 l -0.904,1.2 -0.23,0.306 c -0.358,0.476 -0.716,0.954 -1.08,1.426 l 0.064,-0.139 c -0.623,0.894 -1.266,1.741 -1.891,2.527 -0.767,0.963 -1.633,1.838 -2.528,2.724 -1.823,1.79 -3.759,3.406 -5.632,4.968 -0.491,0.412 -0.962,0.852 -1.431,1.291 l -0.104,0.097 c -0.319,0.307 -0.642,0.61 -0.971,0.905 -0.711,0.637 -1.417,1.23 -2.158,1.811 -1.168,0.909 -2.346,1.797 -3.53,2.682 l -1.811,1.364 c -0.797,0.653 -1.575,1.343 -2.333,2.016 l -0.234,0.207 -0.781,0.7 c -0.585,0.52 -1.194,1.011 -1.805,1.503 l -0.133,0.107 c -0.471,0.381 -0.942,0.762 -1.405,1.155 -0.401,0.335 -0.798,0.675 -1.191,1.016 -0.586,0.503 -1.165,1.001 -1.753,1.486 -1.056,0.871 -1.959,1.52 -2.844,2.044 l -0.208,0.127 -0.102,0.061 c -0.625,0.377 -1.246,0.751 -1.86,1.147 -0.231,0.153 -0.457,0.316 -0.682,0.479 l -0.124,0.09 c -0.266,0.197 -0.533,0.39 -0.811,0.57 -0.864,0.569 -1.89,0.882 -2.889,0.882 -0.251,0 -0.497,-0.021 -0.743,-0.057 C 6.553,-1.356 6.38,-1.287 6.199,-1.233 4.32,-0.637 2.136,0 0,0"
             style="fill:#050000;fill-opacity:1;fill-rule:nonzero;stroke:none"
             id="path54"
             inkscape:connector-curvature="0" /></g><g
           id="g56"
           transform="translate(1263.4199,1303.0576)"><path
             d="M 0,0 C -0.683,0 -1.367,-0.144 -2.005,-0.299 -2.83,-0.497 -3.612,-0.861 -4.37,-1.213 L -4.686,-1.36 C -5.67,-1.763 -6.627,-2.26 -7.61,-2.88 -7.821,-3.014 -8.036,-3.139 -8.248,-3.263 l -0.104,-0.059 c -0.269,-0.152 -0.536,-0.308 -0.794,-0.476 -0.935,-0.6 -1.785,-1.203 -2.597,-1.843 -1.603,-1.264 -2.826,-2.404 -3.851,-3.589 -0.893,-1.032 -1.713,-2.108 -2.372,-2.974 -0.323,-0.43 -0.627,-0.872 -0.926,-1.315 l -0.275,-0.401 -0.273,-0.397 c -1.749,-2.13 -3.623,-4.167 -5.389,-6.052 -0.708,-0.757 -1.37,-1.572 -2.011,-2.36 l -0.696,-0.847 c -0.716,-0.864 -1.485,-1.708 -2.228,-2.523 l -0.168,-0.184 -0.286,-0.311 c -0.5,-0.545 -0.991,-1.097 -1.479,-1.65 -0.55,-0.62 -1.098,-1.238 -1.658,-1.843 -0.992,-1.081 -2.115,-2.306 -3.162,-3.518 -0.926,-1.088 -1.791,-2.243 -2.626,-3.359 l -0.786,-1.044 -0.291,-0.385 c -0.687,-0.909 -1.376,-1.81 -2.063,-2.711 -0.377,-0.467 -0.75,-0.938 -1.118,-1.413 l -0.09,-0.114 c -0.627,-0.788 -1.271,-1.564 -1.915,-2.341 l -0.379,-0.456 c -0.822,-0.987 -1.642,-1.974 -2.441,-2.978 -1.038,-1.31 -2.025,-2.692 -2.979,-4.028 l -0.064,-0.088 -0.249,-0.348 c -0.51,-0.711 -1.019,-1.421 -1.541,-2.121 -1.031,-1.265 -2.087,-2.502 -3.148,-3.738 l -0.549,-0.644 c -0.708,-0.831 -1.404,-1.67 -2.097,-2.51 -0.634,-0.77 -1.269,-1.536 -1.917,-2.293 -1.045,-1.238 -2.121,-2.455 -3.191,-3.668 l -1.309,-1.48 c -1.516,-1.721 -3.133,-3.324 -4.66,-4.82 -0.953,-0.937 -1.962,-1.857 -2.936,-2.748 l -0.677,-0.622 -0.978,-0.901 c -1.424,-1.335 -2.825,-2.698 -4.221,-4.063 l -0.84,-0.814 c -3.16,-3.087 -6.355,-6.067 -9.492,-8.858 -2.873,-2.562 -5.647,-5.485 -8.094,-8.064 l -1.105,-1.159 c -2.286,-2.396 -4.79,-4.634 -7.211,-6.798 l -0.563,-0.504 c -0.608,-0.545 -1.218,-1.091 -1.825,-1.641 -1.599,-1.454 -3.361,-3.055 -5.009,-4.698 -1.812,-1.817 -3.252,-3.287 -4.529,-4.628 l -1.626,-1.712 c -2.674,-2.813 -5.349,-5.623 -8.052,-8.407 -3.235,-3.335 -6.499,-6.623 -9.701,-9.772 -0.971,-0.958 -1.937,-1.925 -2.899,-2.891 l -1.582,-1.581 -0.409,-0.405 -0.133,-0.132 c -1.328,-1.324 -2.701,-2.693 -3.925,-4.14 -0.724,-0.858 -1.439,-1.725 -2.154,-2.593 l -0.394,-0.478 c -2.011,-2.448 -4.09,-4.977 -6.326,-7.339 l -2.421,-2.559 c -0.604,-0.645 -1.28,-1.254 -1.933,-1.842 -0.36,-0.324 -0.687,-0.619 -1.007,-0.918 -1.153,-1.086 -2.375,-2.138 -3.556,-3.155 l -0.092,-0.08 -1.004,-0.864 c -2.412,-2.088 -4.446,-4.087 -6.218,-6.111 -1.379,-1.579 -2.696,-3.345 -3.857,-4.903 -0.394,-0.528 -0.787,-1.057 -1.184,-1.58 l -0.426,-0.529 c -1.331,-1.648 -2.839,-3.515 -4.39,-5.237 -1.393,-1.553 -2.933,-3.036 -4.291,-4.345 l -1.307,-1.266 c -1.701,-1.665 -3.439,-3.455 -4.641,-5.706 -0.635,-1.192 -1.257,-2.392 -1.876,-3.596 -1.531,-2.959 -2.724,-5.438 -3.755,-7.802 l -0.213,-0.5 -0.209,-0.499 c -0.191,-0.696 -0.205,-1.399 -0.042,-2.092 -0.065,-0.145 -0.126,-0.304 -0.188,-0.469 l -0.053,-0.139 c -0.165,-0.428 -0.337,-0.87 -0.435,-1.357 -0.106,-0.515 -0.253,-1.22 -0.287,-1.848 -0.021,-0.538 0.075,-1.118 0.152,-1.583 l 0.066,-0.43 c 0.093,-0.647 0.25,-1.287 0.4,-1.907 0.132,-0.523 0.259,-1.047 0.349,-1.574 0.238,-1.352 0.876,-2.706 2.008,-4.26 l 0.242,-0.332 c 0.474,-0.651 0.939,-1.292 1.492,-1.848 0.524,-0.532 1.023,-1.089 1.515,-1.65 l 0.819,-0.929 c 0.887,-1.012 1.784,-2.035 2.715,-2.998 0.649,-0.664 1.27,-1.375 1.872,-2.062 l 0.188,-0.215 c 0.615,-0.708 1.229,-1.413 1.875,-2.093 0.569,-0.589 1.241,-1.103 1.832,-1.557 l 0.422,-0.328 c 0.909,-0.713 1.843,-1.392 2.785,-2.072 0.961,-0.817 1.835,-1.75 2.681,-2.652 l 0.774,-0.82 c 0.476,-0.493 0.942,-0.995 1.408,-1.496 l 0.226,-0.244 c 0.611,-0.664 1.225,-1.327 1.852,-1.974 0.438,-0.451 0.905,-0.873 1.372,-1.295 0.566,-0.508 1.271,-1.141 1.866,-1.83 l 0.278,-0.319 0.157,-0.181 c 0.787,-0.914 1.573,-1.826 2.334,-2.763 0.327,-0.47 0.633,-0.957 0.94,-1.444 0.381,-0.606 0.763,-1.215 1.185,-1.787 0.734,-0.996 1.554,-1.951 2.277,-2.794 l 0.125,-0.145 c 0.498,-0.586 0.996,-1.17 1.477,-1.775 l 0.711,-0.917 -0.06,0.123 c 1.266,-1.65 2.651,-3.312 4.218,-5.095 1.072,-1.209 1.935,-2.13 2.924,-2.983 1.021,-0.88 2.15,-1.736 3.056,-2.425 l 0.197,-0.151 c 0.887,-0.74 1.693,-1.58 2.403,-2.321 l 0.597,-0.618 c 1.093,-1.118 2.373,-2.05 3.612,-2.953 l 0.465,-0.337 -0.253,0.25 c 1.461,-1.189 2.742,-2.057 4.017,-2.748 0.25,-0.14 0.5,-0.284 0.749,-0.426 0.447,-0.258 0.817,-0.472 1.197,-0.66 0.872,-0.442 1.846,-0.829 3.069,-1.217 l 0.344,-0.114 c 0.551,-0.182 1.176,-0.387 1.816,-0.493 0.676,-0.106 1.359,-0.184 2.044,-0.257 l 0.818,-0.099 c 0.239,-0.028 0.472,-0.041 0.706,-0.041 0.947,0 1.897,0.228 2.735,0.431 l 0.203,0.046 c 0.288,0.067 0.577,0.134 0.869,0.191 1.106,0.168 2.225,0.388 3.42,0.672 0.367,0.089 0.737,0.161 1.105,0.232 l 0.213,0.042 0.184,0.036 c 0.31,0.061 0.618,0.121 0.926,0.193 1.287,0.291 2.279,1.015 3.264,1.796 l 0.102,0.078 0.106,0.077 c 0.244,0.184 0.497,0.355 0.748,0.525 0.625,0.423 1.186,0.803 1.682,1.286 0.312,0.308 0.609,0.632 0.905,0.954 l 0.095,0.103 c 0.499,0.547 0.982,1.075 1.515,1.535 0.678,0.52 1.212,0.953 1.678,1.364 l 0.355,0.32 0.354,0.319 c 0.253,0.232 0.481,0.439 0.708,0.639 0.231,0.154 0.465,0.303 0.702,0.455 l 0.095,0.059 0.472,0.299 c 0.944,0.603 1.785,1.376 2.598,2.123 0.429,0.396 0.878,0.754 1.324,1.111 l 0.685,0.547 c 0.703,0.571 1.318,1.24 1.877,1.877 0.732,0.845 1.578,1.62 2.397,2.37 l 0.26,0.239 c 0.304,0.281 0.607,0.561 0.906,0.847 0.36,0.348 0.717,0.7 1.073,1.052 0.855,0.843 1.73,1.706 2.665,2.489 l 0.872,0.639 c 1.566,1.134 3.34,2.419 4.948,3.851 0.606,0.54 1.184,1.109 1.761,1.678 0.36,0.357 0.717,0.709 1.085,1.057 0.601,0.571 1.264,1.148 2.027,1.761 0.756,0.554 1.522,1.096 2.287,1.635 l 0.264,0.187 c 0.816,0.573 1.63,1.147 2.437,1.736 1.723,1.262 3.418,2.62 5.056,3.934 l 0.096,0.076 1.274,1.019 c 1.301,0.976 2.674,1.942 3.885,2.793 l 0.598,0.422 c 1.276,0.899 2.431,2.01 3.449,2.99 l 0.115,0.11 c 0.597,0.57 1.196,1.141 1.823,1.684 0.509,0.367 1.031,0.72 1.552,1.074 l 0.228,0.153 0.167,0.114 c 0.786,0.533 1.599,1.084 2.368,1.676 0.746,0.583 1.467,1.229 2.102,1.799 0.565,0.504 1.126,1.003 1.715,1.482 0.291,0.215 0.587,0.426 0.885,0.637 l 0.261,0.186 c 1.015,0.717 2.036,1.441 2.958,2.273 l 0.852,0.779 0.195,0.177 c 0.887,0.807 1.803,1.641 2.745,2.418 0.92,0.762 1.789,1.602 2.63,2.414 0.356,0.343 0.696,0.671 1.044,0.998 1.274,1.203 2.363,2.181 3.428,3.08 0.61,0.513 1.215,1.029 1.821,1.546 l 0.574,0.489 c 1.406,1.196 2.765,2.352 4.145,3.481 0.78,0.642 1.537,1.321 2.289,1.996 l 0.336,0.299 c 0.33,0.294 0.66,0.587 0.995,0.879 1.032,0.905 2.257,1.965 3.497,2.989 0.635,0.471 1.277,0.929 1.92,1.388 0.696,0.496 1.392,0.995 2.081,1.507 1.933,1.455 3.67,2.841 5.307,4.24 0.627,0.536 1.274,1.043 1.925,1.551 l 0.121,0.095 c 0.806,0.634 1.638,1.288 2.41,1.99 0.344,0.313 0.681,0.633 1.018,0.953 l 0.338,0.321 c 0.787,0.752 1.679,1.605 2.612,2.366 l 0.758,0.574 c 1.494,1.117 3.187,2.384 4.787,3.722 0.865,0.732 1.706,1.492 2.545,2.25 l 0.175,0.159 c 0.782,0.712 1.568,1.425 2.371,2.113 0.556,0.408 1.134,0.802 1.711,1.178 0.913,0.6 1.846,1.27 2.932,2.11 1.495,1.162 2.908,2.535 4.043,3.637 l 0.701,0.672 0.515,0.506 0.259,0.256 0.101,0.1 c 0.405,0.401 0.81,0.803 1.233,1.181 0.558,0.504 1.131,0.991 1.704,1.474 l 0.348,0.295 c 0.565,0.483 1.126,0.979 1.683,1.475 0.798,0.709 1.622,1.441 2.461,2.125 1.849,1.353 3.42,2.414 4.947,3.336 1.987,1.203 3.897,2.593 5.745,3.938 l 0.832,0.601 c 1.26,0.916 2.482,1.831 3.568,2.945 0.751,0.77 1.473,1.585 2.171,2.372 l 0.123,0.139 0.127,0.139 c 1.328,1.504 2.945,3.011 4.945,4.606 1.014,0.763 2.04,1.506 3.069,2.25 l 0.342,0.248 c 1.377,0.99 2.937,2.112 4.412,3.252 0.478,0.372 0.958,0.754 1.433,1.134 0.765,0.043 1.507,0.359 2.224,0.665 0.318,0.138 0.547,0.3 0.768,0.457 l 0.104,0.074 c 1.003,0.7 1.876,1.493 2.667,2.426 0.191,0.227 0.377,0.457 0.561,0.688 l 0.217,0.271 c 0.405,0.509 0.751,0.945 1.126,1.355 0.435,0.482 0.889,0.945 1.347,1.404 l 0.815,0.835 0.332,0.353 0.172,0.176 0.536,0.47 1.45,1.179 c 0.363,0.257 0.73,0.502 1.097,0.747 0.416,0.268 0.842,0.514 1.268,0.755 0.447,0.254 0.893,0.508 1.319,0.791 0.952,0.622 1.864,1.324 2.713,2.085 0.176,0.158 0.347,0.317 0.519,0.477 l 0.168,0.158 c 0.402,0.377 0.799,0.749 1.225,1.097 0.29,0.242 0.589,0.479 0.884,0.713 0.472,0.377 0.942,0.753 1.405,1.142 0.353,0.304 0.689,0.623 1.025,0.947 0.455,0.437 0.867,0.827 1.317,1.183 1.673,1.32 3.209,3.061 4.696,5.322 1.348,2.039 2.324,3.948 2.987,5.838 0.138,0.402 0.261,0.808 0.369,1.222 0.129,0.498 0.224,1.095 0.261,1.639 0.038,0.574 -0.027,1.026 -0.108,1.597 l -0.03,0.216 c -0.115,0.82 -0.334,1.663 -0.669,2.578 -1.152,3.161 -3.342,5.682 -5.461,8.12 -0.516,0.589 -1.027,1.179 -1.527,1.781 -0.619,0.823 -1.257,1.63 -1.9,2.437 l -0.151,0.192 c -0.594,0.79 -1.197,1.585 -1.802,2.371 -3.252,4.41 -6.762,8.583 -9.457,11.725 -1.009,1.176 -2.111,2.307 -3.178,3.4 l -0.111,0.114 c -0.92,0.938 -1.747,1.787 -2.551,2.674 -0.032,0.041 -0.069,0.082 -0.106,0.119 -0.38,0.617 -0.769,1.231 -1.179,1.833 -0.856,1.271 -1.852,2.459 -2.813,3.607 -0.521,0.617 -1.012,1.206 -1.492,1.808 -0.222,0.28 -0.442,0.564 -0.661,0.848 l -0.153,0.196 c -0.523,0.681 -1.114,1.453 -1.741,2.163 -0.287,0.328 -0.581,0.651 -0.881,0.975 -0.356,0.389 -0.712,0.778 -1.056,1.183 -0.528,0.72 -1.036,1.457 -1.543,2.195 l -0.246,0.356 c -0.694,1.025 -1.488,2.002 -2.256,2.948 l -0.632,0.783 -0.11,0.144 -0.11,0.143 -1.126,1.49 c -0.676,0.901 -1.357,1.806 -2.044,2.699 l -0.111,0.144 c -0.706,0.946 -1.397,1.906 -2.088,2.864 l -0.213,0.297 c -0.57,0.794 -1.143,1.589 -1.72,2.379 -1.243,1.686 -2.607,3.364 -3.81,4.845 l -1.204,1.487 c -0.06,0.082 -0.123,0.164 -0.188,0.241 l -0.065,0.086 -0.094,0.124 c -0.909,1.185 -1.846,2.41 -2.864,3.534 l -0.659,0.717 c -0.655,0.715 -1.288,1.405 -1.875,2.117 l -0.074,0.089 c -0.906,1.095 -1.793,2.164 -2.818,3.078 -1.081,0.963 -2.195,1.885 -3.404,2.817 l -0.217,0.181 -0.132,0.206 -0.122,0.185 c -0.589,0.909 -1.201,1.849 -1.841,2.739 -0.65,0.91 -1.321,1.798 -1.993,2.688 l -0.145,0.191 c -0.722,0.956 -1.441,1.91 -2.138,2.875 -0.896,1.247 -1.752,2.33 -2.617,3.31 -0.262,0.295 -0.524,0.581 -0.791,0.872 -0.462,0.508 -0.925,1.016 -1.367,1.552 l -0.598,0.819 c -0.583,0.804 -1.15,1.587 -1.749,2.322 -1.25,1.524 -2.562,2.798 -3.9,3.786 -0.41,0.301 -0.823,0.542 -1.3,0.759 -1.058,0.482 -1.776,0.68 -2.956,0.816 C 0.333,-0.008 0.169,0 0,0"
             style="fill:#050000;fill-opacity:1;fill-rule:nonzero;stroke:none"
             id="path58"
             inkscape:connector-curvature="0" /></g><g
           id="g60"
           transform="translate(919.6992,1241.9482)"><path
             d="m 0,0 h -0.074 c -1.755,0 -3.52,-0.202 -5.227,-0.398 L -5.439,-0.414 -5.595,-0.43 c -2.508,-0.29 -4.551,-0.649 -6.431,-1.131 l -1.421,-0.368 c -1.406,-0.366 -2.825,-0.736 -4.242,-1.036 l -0.332,-0.071 c -1.806,-0.388 -3.854,-0.828 -5.857,-1.338 -0.492,-0.123 -0.985,-0.252 -1.48,-0.383 l -0.195,-0.051 -0.109,-0.029 c -1.374,-0.364 -2.795,-0.74 -4.219,-0.995 -0.159,-0.032 -0.318,-0.057 -0.477,-0.082 l -0.203,-0.028 c -1.595,-0.204 -3.033,-0.393 -4.476,-0.66 -1.281,-0.237 -2.559,-0.459 -3.849,-0.651 l -0.181,-0.023 c -1.475,-0.188 -3,-0.384 -4.476,-0.714 -0.971,-0.209 -1.948,-0.511 -2.811,-0.779 -0.611,-0.188 -1.22,-0.377 -1.834,-0.544 -1.163,-0.314 -2.364,-0.572 -3.595,-0.831 l -0.843,-0.18 c -0.463,-0.103 -0.93,-0.209 -1.393,-0.316 -0.943,-0.214 -1.946,-0.438 -2.927,-0.61 l -0.758,-0.131 -0.164,-0.028 c -1.112,-0.187 -2.262,-0.382 -3.383,-0.635 -0.324,-0.074 -0.651,-0.152 -0.975,-0.23 -0.377,-0.094 -0.753,-0.184 -1.134,-0.266 -0.536,-0.119 -1.081,-0.2 -1.625,-0.282 -0.285,-0.041 -0.569,-0.086 -0.854,-0.13 -1.351,-0.232 -2.703,-0.521 -4.01,-0.8 l -0.117,-0.025 c -1.463,-0.316 -3.122,-0.673 -4.758,-0.925 -1.666,-0.203 -3.389,-0.413 -5.049,-0.713 -0.932,-0.17 -1.835,-0.394 -2.835,-0.647 l -0.341,-0.085 c -0.399,-0.1 -0.798,-0.199 -1.203,-0.291 -0.794,-0.181 -1.597,-0.345 -2.399,-0.504 -0.68,-0.135 -1.356,-0.275 -2.036,-0.426 -0.29,-0.063 -0.578,-0.139 -0.868,-0.215 l -0.209,-0.056 c -0.287,-0.077 -0.573,-0.155 -0.864,-0.225 -0.516,-0.118 -1.035,-0.208 -1.559,-0.286 -1.294,-0.16 -2.584,-0.336 -3.874,-0.516 -0.926,-0.115 -1.852,-0.205 -2.777,-0.295 l -0.126,-0.013 c -0.499,-0.048 -1.001,-0.098 -1.5,-0.151 l -1.24,-0.135 c -1.32,-0.147 -2.684,-0.298 -4.05,-0.397 -1.405,-0.103 -2.806,-0.25 -4.206,-0.398 -1.604,-0.169 -3.422,-0.362 -5.213,-0.458 -3.176,-0.181 -6.32,-0.221 -9.53,-0.25 l -0.602,-0.008 c -0.573,-0.004 -1.15,-0.008 -1.728,-0.008 -0.688,0 -1.376,0.004 -2.063,0.032 -1.315,0.051 -2.709,0.164 -4.39,0.356 -0.968,0.155 -1.97,0.349 -3.246,0.627 -1.5,0.326 -3.115,0.556 -4.936,0.704 -0.598,0.046 -1.196,0.079 -1.798,0.111 -0.933,0.049 -1.774,0.097 -2.616,0.193 -0.513,0.057 -1.024,0.118 -1.536,0.184 l -0.494,0.06 c -0.348,0.043 -0.696,0.085 -1.046,0.124 -0.717,0.128 -1.441,0.307 -2.141,0.48 l -0.491,0.122 c -1.094,0.267 -2.187,0.424 -3.4,0.586 -0.408,0.065 -0.816,0.138 -1.224,0.212 l -0.28,0.049 c -0.588,0.103 -1.177,0.207 -1.772,0.292 -0.782,0.826 -1.862,1.881 -3.223,2.697 -1.025,0.615 -2.23,0.939 -3.487,0.939 -1.773,0 -3.56,-0.648 -4.904,-1.78 -1.82,-1.523 -2.904,-4.19 -2.76,-6.794 0.049,-0.832 0.219,-1.727 0.504,-2.66 0.175,-0.58 0.432,-1.146 0.701,-1.722 l 0.127,-0.27 c 0.313,-0.689 0.823,-1.291 1.316,-1.874 l 0.286,-0.344 c 0.449,-0.538 1.006,-0.998 1.545,-1.442 l 0.218,-0.177 c 0.938,-0.774 1.918,-1.479 2.994,-2.155 1.895,-1.187 3.679,-2.151 5.456,-2.949 l 0.918,-0.413 c 1.556,-0.696 3.076,-1.381 4.562,-2.114 l 0.561,-0.282 0.105,-0.052 c 1.574,-0.782 3.203,-1.59 4.838,-2.303 1.909,-0.84 4.18,-1.81 6.553,-2.637 1.258,-0.439 2.552,-0.841 3.806,-1.23 l 0.208,-0.065 0.995,-0.311 0.995,-0.311 c 2.199,-0.707 4.442,-1.563 6.421,-2.318 1.519,-0.58 3.24,-1.237 4.935,-1.818 1.088,-0.378 2.172,-0.771 3.253,-1.163 l 0.383,-0.14 1.499,-0.544 c 1.294,-0.471 2.627,-0.902 3.916,-1.32 0.852,-0.274 1.63,-0.528 2.404,-0.785 3.152,-1.061 6.292,-2.141 9.431,-3.222 l 2.093,-0.718 c 2.91,-1.004 5.822,-2.14 8.639,-3.239 0.995,-0.39 1.923,-0.754 2.851,-1.11 l 0.479,-0.188 c 1.082,-0.414 2.163,-0.832 3.236,-1.266 0.999,-0.446 2.016,-0.966 2.833,-1.384 l 0.445,-0.224 c 0.395,-0.201 0.79,-0.401 1.189,-0.595 1.284,-0.625 2.687,-1.131 3.924,-1.577 l 0.338,-0.123 c 0.571,-0.208 1.14,-0.415 1.701,-0.635 l 0.291,-0.126 c 0.676,-0.287 1.352,-0.574 2.027,-0.848 2.115,-0.879 4.089,-1.597 6.034,-2.196 l 0.175,-0.057 c 1.621,-0.499 3.458,-1.064 5.18,-1.748 1.237,-0.553 2.469,-1.114 3.698,-1.679 l 0.454,-0.205 c 1.711,-0.783 3.548,-1.473 5.617,-2.109 2.016,-0.618 3.781,-0.918 5.396,-0.918 0.131,0 0.262,0 0.394,0.004 2.9,0.086 5.727,1.252 8.401,3.467 0.773,0.638 1.492,1.348 2.126,1.974 l 0.167,0.164 c 0.505,0.495 1.01,0.989 1.544,1.454 0.549,0.483 1.106,0.958 1.663,1.433 0.885,0.754 1.769,1.511 2.629,2.294 0.838,0.769 1.72,1.507 2.625,2.26 0.721,0.602 1.442,1.204 2.146,1.83 1.189,1.057 2.323,2.216 3.42,3.337 l 0.541,0.551 c 1.51,1.541 2.738,3.362 3.927,5.122 0.481,0.715 0.927,1.374 1.386,2.025 0.622,0.761 1.257,1.51 1.895,2.264 l 1.155,1.368 c 0.44,0.53 0.865,1.064 1.293,1.602 l 0.179,0.225 c 0.664,0.83 1.35,1.688 2.074,2.493 2.701,3.009 5.094,5.893 7.315,8.818 0.77,0.983 1.556,1.953 2.354,2.915 0.837,1.018 1.622,2.085 2.38,3.117 l 0.697,0.946 c 0.544,0.66 1.114,1.295 1.687,1.932 l 0.114,0.127 c 0.61,0.676 1.22,1.356 1.802,2.056 0.996,1.198 1.897,2.492 2.769,3.744 0.483,0.696 0.97,1.393 1.47,2.072 0.212,0.263 0.429,0.523 0.647,0.786 l 0.192,0.229 0.407,0.492 0.408,0.491 c 1.13,1.393 1.859,2.683 2.365,4.185 0.423,1.252 0.516,2.569 0.27,3.81 -0.229,1.119 -0.821,2.232 -1.759,3.31 -1.611,1.836 -3.882,3.049 -6.567,3.508 C 4.459,-0.337 2.25,0 0,0"
             style="fill:#050000;fill-opacity:1;fill-rule:nonzero;stroke:none"
             id="path62"
             inkscape:connector-curvature="0" /></g><g
           id="g64"
           transform="translate(864.1636,1147.8311)"><path
             d="m 0,0 c -1.021,0 -2.068,-0.168 -3.082,-0.331 l -0.11,-0.017 -0.283,-0.046 c -0.671,-0.104 -1.33,-0.284 -1.969,-0.458 l -0.12,-0.033 C -5.945,-0.992 -6.326,-1.098 -6.715,-1.192 -7.22,-1.221 -7.732,-1.229 -8.24,-1.229 l -0.77,0.004 -0.765,0.004 c -1.106,0 -2.208,0 -3.313,-0.004 l -0.279,-0.004 h -0.279 l -0.274,0.004 h -0.119 -0.114 c -1.189,0 -2.536,0 -3.847,-0.13 -1.153,-0.116 -2.127,-0.27 -3.131,-0.648 -0.492,-0.498 -0.996,-0.929 -1.506,-1.283 l -0.192,-0.131 -0.192,-0.136 -0.378,-0.361 c -0.131,-0.127 -0.267,-0.245 -0.405,-0.364 -0.218,-0.392 -0.474,-0.769 -0.784,-1.157 l -0.102,-0.127 c -0.593,-0.707 -1.319,-1.371 -1.943,-1.774 l -0.026,-0.151 -0.012,-0.136 c -0.057,-0.639 -0.139,-1.273 -0.225,-1.908 l -0.028,-0.245 c -0.033,-0.252 -0.06,-0.471 -0.103,-0.683 -0.168,-0.898 -0.397,-1.648 -0.72,-2.361 l 0.168,-0.353 0.184,-0.361 0.164,-0.327 0.065,-0.135 0.068,-0.135 c 1.098,-2.194 2.232,-4.464 3.5,-6.607 0.61,-1.036 1.265,-2.06 1.905,-3.055 l 0.122,-0.193 0.635,-0.991 c 0.64,-1.002 1.254,-2.013 1.87,-3.027 l 0.092,-0.15 0.86,-1.405 1.22,-1.983 0.512,-0.831 0.356,-0.581 1.262,-2.064 c 0.757,-1.268 1.466,-2.549 2.216,-3.905 l 0.699,-1.255 c 0.459,-0.831 0.938,-1.646 1.417,-2.462 l 0.107,-0.175 0.111,-0.185 c 0.487,-0.819 0.97,-1.642 1.441,-2.469 0.606,-1.081 1.191,-2.171 1.777,-3.264 l 0.164,-0.303 0.336,-0.626 0.684,-1.254 c 0.459,-0.847 0.965,-1.685 1.455,-2.495 l 0.113,-0.187 0.193,-0.316 c 0.418,-0.68 0.835,-1.363 1.237,-2.055 1.134,-1.955 2.146,-4.073 2.959,-5.776 0.391,-0.826 0.74,-1.585 1.088,-2.343 l 0.138,-0.296 0.27,-0.586 0.065,-0.143 c 0.968,-2.116 2.065,-4.514 3.297,-6.721 0.536,-0.976 1.112,-1.937 1.683,-2.89 l 0.107,-0.178 0.058,-0.094 0.061,-0.099 c 0.421,-0.7 0.835,-1.387 1.241,-2.08 1.129,-1.949 2.081,-3.68 2.911,-5.29 l 0.983,-1.937 0.074,-0.152 c 1.439,-2.845 2.919,-5.771 4.669,-8.51 l 0.356,-0.562 0.188,-0.299 0.185,-0.291 c 0.764,-1.207 1.63,-2.575 2.407,-3.943 l 0.467,-0.831 c 0.7,-1.246 1.659,-2.952 2.687,-4.505 0.463,-0.701 0.938,-1.389 1.413,-2.072 l 0.275,-0.398 0.139,-0.205 0.171,-0.249 c 0.46,-0.672 0.923,-1.348 1.36,-2.036 1.203,-1.898 2.365,-3.805 3.452,-5.667 2.058,-3.529 4.453,-6.987 6.566,-10.038 2.326,-3.365 4.274,-6.804 6.4,-10.626 2.05,-3.696 4.167,-7.231 6.29,-10.506 1.654,-2.552 3.159,-5.295 4.487,-7.716 l 0.12,-0.22 0.471,-0.86 0.405,-0.732 0.549,-0.988 c 0.648,-1.163 1.278,-2.33 1.905,-3.501 l 0.262,-0.483 c 1.072,-1.993 2.287,-4.253 3.542,-6.381 1.563,-2.66 3.209,-5.606 5.033,-9.005 1.843,-3.457 3.787,-6.866 5.783,-10.345 l 0.946,-1.663 c 0.659,-1.167 1.323,-2.335 2.002,-3.493 0.77,-1.324 1.675,-2.604 2.401,-3.633 l 0.635,-0.91 c 1.814,-2.623 3.48,-5.388 5.091,-8.064 l 0.085,-0.142 0.79,-1.314 0.754,-1.253 0.552,-0.914 c 1.604,-2.658 3.192,-5.291 4.812,-7.903 1.967,-3.179 3.921,-6.674 5.348,-9.227 l 0.176,-0.315 0.086,-0.152 c 0.394,-0.717 0.783,-1.432 1.168,-2.153 l 0.163,-0.304 0.189,-0.352 c 0.495,-0.93 0.991,-1.855 1.516,-2.764 0.466,-0.819 0.945,-1.622 1.433,-2.425 l 0.118,-0.2 0.238,-0.398 c 0.413,-0.689 0.82,-1.37 1.216,-2.055 0.954,-1.674 2.003,-3.392 2.912,-4.87 l 0.176,-0.29 c 1.003,-1.64 2.033,-3.326 3.014,-5.022 2.257,-3.927 4.177,-7.057 6.041,-9.849 3.434,-5.164 6.786,-10.701 9.743,-15.586 l 0.642,-1.061 1.667,-2.74 c 1.839,-3.022 3.304,-6.145 5.029,-9.913 1.358,-2.987 2.969,-6.117 5.221,-10.154 l 1.147,-2.055 c 1.572,-2.808 3.104,-5.556 4.566,-8.309 1.218,-2.311 2.496,-4.587 3.732,-6.787 l 0.057,-0.102 c 0.769,-1.368 1.539,-2.739 2.297,-4.115 0.356,-0.655 0.721,-1.31 1.085,-1.962 0.651,-1.163 1.298,-2.326 1.92,-3.501 l 0.984,-1.864 0.176,-0.335 c 0.569,-1.077 1.134,-2.146 1.711,-3.215 0.582,-1.077 1.184,-2.146 1.786,-3.211 l 0.856,-1.523 c 0.724,-1.312 1.573,-2.832 2.494,-4.28 0.606,-0.963 1.192,-1.942 1.774,-2.916 l 0.188,-0.311 c 0.972,-1.641 2.014,-3.377 3.121,-4.98 l 2.006,-2.929 0.525,-0.766 c 0.966,-1.417 1.928,-2.821 2.895,-4.218 0.75,-1.085 1.507,-2.158 2.269,-3.231 l 0.377,-0.532 0.332,-0.459 c 0.323,-0.446 0.646,-0.897 0.941,-1.367 0.385,-0.622 0.732,-1.27 1.077,-1.912 l 0.405,-0.749 c 0.715,-1.315 1.6,-2.603 2.31,-3.638 l 0.074,-0.111 0.078,-0.115 0.268,-0.395 c 0.269,-0.399 0.539,-0.798 0.801,-1.198 l -0.258,0.021 c -0.824,-0.073 -1.667,-0.127 -2.572,-0.16 -0.172,-0.008 -0.344,-0.012 -0.516,-0.012 -1.036,0 -2.059,0.119 -2.738,0.209 -1.507,0.225 -3.018,0.438 -4.534,0.618 -0.936,0.142 -1.911,0.347 -2.751,0.529 l -0.372,0.075 c -0.778,0.156 -1.515,0.304 -2.261,0.432 -1.864,0.301 -3.701,0.663 -5.618,1.106 -2.062,0.487 -4.065,0.751 -5.923,0.962 l -0.127,0.013 c -0.572,0.059 -1.22,0.126 -1.857,0.126 -0.324,0 -0.652,-0.016 -0.975,-0.057 -0.75,-0.101 -1.496,-0.21 -2.242,-0.32 -0.444,-0.047 -0.872,-0.075 -1.293,-0.103 l -0.233,-0.015 c -0.73,-0.05 -1.388,-0.098 -2.04,-0.201 -1.272,-0.213 -2.594,-0.985 -3.626,-2.12 -0.97,-1.067 -1.595,-2.467 -1.969,-4.403 -0.049,-0.271 -0.094,-0.545 -0.135,-0.816 -0.061,-0.403 -0.123,-0.803 -0.213,-1.191 -0.203,-0.79 -0.356,-1.511 -0.454,-2.143 -0.184,-1.226 -0.295,-2.182 -0.361,-3.1 l -0.049,-0.844 -0.016,-0.315 c -0.021,-0.369 -0.041,-0.734 -0.074,-1.102 -0.313,-2.205 -0.578,-4.194 -0.66,-6.2 -0.074,-1.872 -0.09,-3.817 -0.106,-5.698 -0.021,-2.49 -0.021,-4.975 -0.017,-7.465 v -1.245 c -0.126,-0.234 -0.216,-0.496 -0.265,-0.772 -0.464,-2.882 -0.861,-5.487 -1.029,-8.184 -0.073,-1.217 -0.098,-2.452 -0.118,-3.714 l -0.009,-0.246 c -0.015,-0.979 -0.116,-1.95 -0.237,-3.026 l -0.016,-0.16 -0.111,-0.99 c -0.418,-4.005 -0.409,-8.047 -0.401,-11.955 v -2.155 c 0,-1.462 0.008,-2.924 0.02,-4.386 v -0.188 l 0.001,-0.19 c 0.02,-3.466 0.041,-7.05 -0.119,-10.593 -0.085,-2.016 -0.284,-4.056 -0.476,-6.029 l -0.012,-0.118 -0.028,-0.29 -0.099,-0.966 c -0.246,-2.536 -0.503,-5.075 -0.766,-7.614 -0.278,-2.696 -0.503,-4.668 -0.729,-6.392 -0.175,-1.253 -0.347,-2.51 -0.515,-3.767 -0.381,-2.47 -0.766,-4.935 -1.172,-7.404 -0.065,-0.422 -0.143,-0.843 -0.22,-1.264 l -0.066,-0.353 -0.07,-0.381 c -0.102,-0.558 -0.205,-1.114 -0.303,-1.672 -0.127,-0.758 -0.238,-1.516 -0.344,-2.277 l -0.062,-0.447 -0.022,-0.153 c -0.049,-0.333 -0.096,-0.653 -0.149,-0.977 -0.098,-0.611 -0.187,-1.227 -0.276,-1.843 l -0.015,-0.126 c -0.09,-0.652 -0.172,-1.238 -0.271,-1.826 l -0.13,-0.816 c -0.215,-1.327 -0.442,-2.737 -0.599,-4.1 -0.189,-1.744 -0.328,-3.529 -0.461,-5.253 l -0.034,-0.455 -0.066,-0.869 -0.114,-1.482 c -0.052,-0.641 -0.108,-1.281 -0.164,-1.922 l -0.016,-0.163 -0.009,-0.11 -0.036,-0.422 c -0.149,-1.69 -0.288,-3.339 -0.361,-4.956 -0.102,-2.277 -0.164,-4.591 -0.221,-6.847 l -0.008,-0.237 -0.004,-0.3 -0.025,-0.925 c -0.149,-5.634 -0.733,-11.01 -1.286,-15.524 -0.225,-1.876 -0.442,-3.756 -0.659,-5.64 -0.307,-2.657 -0.619,-5.315 -0.954,-7.973 -0.503,-3.559 -1.057,-6.999 -1.732,-11.069 l -0.156,-0.942 -0.049,-0.279 -0.054,-0.319 -0.058,-0.355 c -0.22,-1.331 -0.445,-2.699 -0.63,-4.056 -0.219,-1.631 -0.424,-3.274 -0.629,-4.909 l -0.038,-0.304 -0.016,-0.106 -0.111,-0.918 -0.094,-0.77 c -0.244,-1.999 -0.421,-3.994 -0.611,-6.209 l -0.036,-0.422 c -0.156,-1.839 -0.311,-3.637 -0.508,-5.43 -0.414,-3.763 -0.901,-8.132 -1.45,-12.359 -0.421,-3.037 -0.667,-5.405 -0.799,-7.68 -0.073,-1.379 -0.131,-2.759 -0.188,-4.14 l -0.025,-0.676 -0.032,-0.839 c -0.037,-0.893 -0.074,-1.769 -0.115,-2.641 -0.061,-1.372 -0.149,-2.739 -0.239,-4.11 -0.089,-1.325 -0.17,-2.57 -0.236,-3.819 -0.127,-2.481 -0.319,-4.874 -0.577,-7.986 -0.095,-1.163 -0.221,-2.321 -0.348,-3.48 -0.149,-1.325 -0.333,-2.975 -0.431,-4.559 -0.131,-2.209 -0.225,-4.652 -0.286,-7.469 -0.099,-5.05 -0.114,-10.067 -0.13,-15.377 l -0.001,-0.567 -0.004,-0.561 v -1.597 -0.205 c -0.004,-3.443 -0.009,-6.996 -0.217,-10.483 -0.071,-1.219 -0.208,-2.457 -0.341,-3.654 l -0.02,-0.182 -0.02,-0.157 -0.016,-0.147 c -0.074,-0.605 -0.144,-1.212 -0.209,-1.818 -0.164,-1.56 -0.36,-3.123 -0.555,-4.687 l -0.08,-0.604 c -0.473,-3.296 -0.951,-6.813 -1.155,-10.366 l -0.074,-1.506 -0.037,-0.767 -0.028,-0.721 c -0.077,-1.932 -0.172,-4.339 -0.435,-6.658 l -0.163,-1.146 c -0.119,-0.831 -0.238,-1.663 -0.352,-2.498 -0.094,-0.73 -0.168,-1.458 -0.242,-2.192 l -0.045,-0.446 c -0.025,-0.266 -0.053,-0.532 -0.086,-0.794 -0.363,-2.608 -0.757,-5.152 -1.171,-7.564 l -0.201,-1.15 c -0.159,-0.873 -0.315,-1.741 -0.442,-2.622 -0.149,-1.06 -0.254,-2.148 -0.344,-3.166 -0.058,-0.606 -0.115,-1.191 -0.181,-1.785 -0.098,-0.626 -0.216,-1.351 -0.368,-2.051 l -0.172,-0.68 -0.073,-0.295 c -0.132,-0.475 -0.28,-1.038 -0.377,-1.597 -0.464,-2.727 -0.725,-5.865 0.844,-8.464 1.079,-1.801 2.894,-3.285 4.736,-3.875 1.009,-0.328 2.098,-0.496 3.239,-0.496 0.919,0 1.887,0.106 2.877,0.316 1.676,0.362 3.25,1.139 4.771,1.89 l 0.358,0.175 c 0.41,0.201 0.82,0.401 1.229,0.593 1.005,0.382 2.007,0.762 2.993,1.171 0.717,0.3 1.409,0.627 2.102,0.959 l 0.995,0.484 c 1.097,0.394 2.263,0.756 3.201,1.048 l 0.229,0.073 c 1.156,0.351 2.284,0.7 3.375,1.101 1.85,0.662 3.732,1.102 5.552,1.528 l 0.258,0.061 c 0.769,0.184 1.536,0.367 2.302,0.573 0.529,0.14 1.061,0.284 1.589,0.43 0.729,0.205 1.462,0.41 2.203,0.586 0.872,0.223 1.779,0.368 2.656,0.51 l 0.177,0.026 c 0.389,0.058 0.733,0.111 1.077,0.168 0.942,0.16 1.88,0.332 2.818,0.508 l 0.332,0.061 0.311,0.058 c 1.159,0.213 2.318,0.422 3.48,0.594 1.949,0.212 3.915,0.343 5.926,0.471 0.831,0.053 1.662,0.11 2.494,0.168 l 0.446,0.037 0.115,0.007 c 1.45,0.112 3.256,0.25 5.053,0.25 0.833,0 1.476,-0.022 2.083,-0.073 l 0.966,-0.148 0.123,-0.016 0.126,-0.019 c 2.601,-0.395 5.291,-0.804 7.975,-0.804 0.382,0 0.767,0.008 1.148,0.024 0.97,0.052 1.96,0.153 3.059,0.271 0.738,0.082 1.405,0.155 2.073,0.2 l 0.59,0.054 c 0.764,0.068 1.92,0.172 3.004,0.172 0.238,0 0.471,-0.004 0.705,-0.017 0.295,-0.077 0.594,-0.188 0.897,-0.314 0.725,-0.3 1.517,-0.379 2.283,-0.457 l 0.246,-0.028 c 0.164,-0.012 0.333,-0.02 0.501,-0.02 0.719,0 1.435,0.127 2.127,0.249 l 0.43,0.075 c 0.617,0.106 1.264,0.269 1.979,0.5 1.316,0.399 2.615,0.857 4.055,1.372 l 0.177,0.061 c 0.892,0.316 1.776,0.626 2.674,0.925 0.725,0.241 1.506,0.434 2.193,0.605 l 0.124,0.03 c 0.495,0.119 0.917,0.23 1.339,0.344 1.226,0.319 2.529,0.757 3.986,1.34 1.248,0.488 2.54,1.089 3.949,1.839 0.442,0.233 0.876,0.483 1.306,0.733 l 0.136,0.078 c 0.564,0.323 1.059,0.605 1.567,0.863 1.679,0.582 3.483,0.844 5.227,1.097 l 0.356,0.046 -0.109,0.049 c 0,0 0.107,-0.013 0.109,-0.013 0.799,0.091 1.617,0.213 2.446,0.34 l 1.318,0.201 c 0.585,0.069 1.175,0.127 1.765,0.18 0.634,0.057 1.265,0.119 1.895,0.192 0.914,0.115 1.816,0.267 2.716,0.418 l 0.233,0.037 c 0.517,0.09 0.943,0.164 1.369,0.225 1.849,0.303 3.49,1.028 5.076,1.729 l 0.341,0.152 c 0.445,0.164 0.899,0.291 1.357,0.417 l 0.114,0.029 c 0.557,0.159 1.082,0.31 1.583,0.524 0.775,0.318 1.682,0.713 2.544,1.238 l 0.201,0.123 0.185,0.11 c 0.323,0.196 0.65,0.393 0.986,0.573 0.196,0.061 0.402,0.12 0.605,0.178 l 0.118,0.034 c 0.377,0.107 0.746,0.213 1.106,0.349 1.423,0.517 2.764,1.164 3.987,1.922 0.854,0.52 1.742,0.998 2.813,1.567 l 0.11,0.063 0.508,0.269 0.152,0.078 0.145,0.077 c 0.869,0.461 1.604,0.852 2.361,1.208 0.473,0.168 0.957,0.303 1.439,0.43 0.829,0.22 1.716,0.623 2.303,0.89 l 0.397,0.179 c 0.859,0.378 1.689,0.905 2.357,1.328 1.099,0.707 2.371,1.586 3.47,2.742 1.604,1.685 2.977,3.855 4.081,6.449 0.509,1.202 1.031,2.505 1.393,3.883 0.296,1.12 0.422,2.296 0.545,3.433 0.041,0.373 0.082,0.738 0.127,1.102 0.269,2.208 0.36,4.551 0.43,6.763 0.075,2.767 -0.051,5.585 -0.373,8.372 -0.269,2.298 -0.478,4.67 -0.647,6.687 l -0.045,0.471 c -0.207,2.398 -0.416,4.738 -0.692,6.99 l -0.242,1.926 -0.073,0.585 c -0.214,1.732 -0.427,3.473 -0.615,5.205 -0.265,2.396 -0.454,5.044 -0.577,8.096 -0.045,1.019 -0.066,2.039 -0.086,3.063 l -0.008,0.43 -0.009,0.373 c -0.024,1.318 -0.052,2.683 -0.122,4.017 -0.145,2.646 -0.331,5.139 -0.569,7.622 -0.518,5.139 -0.799,10.349 -0.836,15.483 -0.013,2.02 0.097,4.053 0.209,5.962 l 0.037,0.635 0.073,1.351 c 0.118,2.421 0.299,4.932 0.476,7.285 l 0.012,0.168 0.008,0.116 c 0.101,1.418 0.214,2.832 0.327,4.253 l 0.017,0.218 0.013,0.118 0.012,0.123 0.012,0.14 c 0.273,3.383 0.577,7.179 0.712,10.828 0.168,4.866 0.182,9.866 0.194,14.277 v 0.434 l 0.003,1.253 c 0.008,5.308 0.008,10.615 0.008,15.923 0.004,5.779 0.396,11.267 0.779,15.872 0.425,5.326 0.544,10.425 0.61,15.141 0.008,0.602 0.012,1.2 0.016,1.801 l 0.008,0.902 c 0.013,1.803 0.025,3.632 0.099,5.405 0.045,1.204 0.11,2.412 0.18,3.62 l 0.033,0.52 0.008,0.18 0.014,0.259 c 0.061,1.046 0.12,2.079 0.17,3.116 l 0.053,1.249 c 0.102,2.667 0.212,4.788 0.345,6.675 0.169,2.444 0.305,5.14 0.405,8.015 0.076,2.621 0.249,5.435 0.376,7.49 l 0.009,0.11 0.02,0.357 0.021,0.364 0.02,0.347 c 0.124,2.142 0.254,4.358 0.323,6.538 0.058,1.783 0.083,3.562 0.107,5.347 l 0.013,1.025 0.003,0.273 c 0.015,1.251 0.033,2.668 -0.02,4.032 -0.041,0.877 -0.127,1.769 -0.209,2.609 l -0.017,0.131 c -0.052,0.532 -0.102,1.053 -0.138,1.576 -0.122,1.617 -0.172,3.24 -0.205,4.615 -0.082,2.759 -0.09,5.562 -0.099,8.273 v 0.495 1.098 c 0,1.67 0,3.341 -0.004,5.008 l -0.004,0.607 c -0.004,1.084 -0.01,2.345 0.114,3.545 0.295,1.865 0.781,3.713 1.446,5.493 0.804,1.831 1.688,3.659 2.624,5.433 0.656,1.226 1.395,2.405 2.223,3.709 l 0.111,0.181 0.07,0.11 0.114,0.176 c 0.558,0.877 1.115,1.753 1.634,2.655 0.59,1.001 1.209,1.996 1.826,2.986 l 0.078,0.126 0.168,0.27 0.058,0.094 c 0.627,0.995 1.253,1.995 1.852,3.007 1.581,2.648 3.071,4.897 4.552,6.874 1.157,1.528 2.278,3.141 3.42,4.796 l 0.062,0.095 0.147,0.209 c 0.739,1.07 1.856,2.687 2.924,4.119 0.845,1.074 1.59,1.968 2.346,2.817 0.389,0.438 0.782,0.863 1.179,1.294 l 0.221,0.241 c 0.562,0.611 1.122,1.225 1.659,1.856 1.854,2.188 4.032,4.801 6.131,7.592 l -0.141,-0.081 0.288,0.298 c 1.119,1.45 2.326,3.101 3.798,5.194 0.629,0.888 1.285,1.76 1.944,2.637 l 0.143,0.188 0.136,0.183 c 0.754,1.015 1.533,2.064 2.244,3.127 1.298,1.92 2.592,3.849 3.862,5.794 1.191,1.82 2.452,3.528 3.747,5.263 l 0.782,0.986 c 0.332,0.412 0.659,0.829 0.986,1.245 0.222,0.279 0.407,0.516 0.587,0.754 l -0.167,-0.096 c 0.233,0.216 0.494,0.564 0.744,0.907 1.016,1.375 1.899,2.714 2.7,4.092 l 0.507,0.868 c 0.725,1.249 1.45,2.49 2.211,3.715 0.856,1.352 1.79,2.677 2.695,3.959 l 0.75,1.065 c 1.113,1.569 2.307,3.419 3.653,5.656 l 0.827,1.368 0.078,0.123 c 0.958,1.584 1.864,3.079 2.792,4.525 1.512,2.315 2.627,4.129 3.617,5.881 0.324,0.569 0.651,1.142 0.983,1.712 l 0.11,0.188 c 0.745,1.296 1.515,2.636 2.192,3.965 0.942,1.835 1.869,3.834 2.834,6.11 l 0.18,0.415 0.09,0.212 0.09,0.209 c 1.065,2.426 2.227,5.019 3.51,7.547 l 0.098,0.184 c 0.683,1.336 1.457,2.849 2.146,4.399 0.702,1.58 1.133,3.196 1.512,4.621 0.683,2.549 1.502,5.152 2.432,7.735 0.316,0.877 0.603,1.753 0.889,2.634 l 0.123,0.364 c 0.535,1.654 1.026,3.141 1.621,4.591 l 0.147,0.351 c 1.501,3.347 2.461,5.936 3.114,8.393 0.142,0.529 0.271,1.058 0.398,1.584 l 0.117,0.497 0.189,0.786 0.283,1.123 0.057,0.224 c 0.16,0.586 0.311,1.171 0.442,1.761 0.209,0.938 0.414,1.872 0.618,2.81 0.25,1.183 0.508,2.363 0.779,3.542 0.244,1.044 0.511,2.08 0.779,3.12 l 0.031,0.123 0.103,0.431 0.11,0.433 0.115,0.454 c 0.151,0.599 0.302,1.197 0.443,1.795 0.298,1.265 0.626,2.518 0.962,3.771 l 0.573,2.179 c 0.508,1.975 1.077,3.938 1.741,5.999 0.48,1.484 1.054,2.957 1.608,4.38 l 0.066,0.173 0.037,0.099 c 0.152,0.104 0.321,0.257 0.485,0.434 0.862,0.956 1.299,1.875 1.727,3.051 0.196,0.533 0.352,1.012 0.479,1.471 0.053,0.205 0.111,0.405 0.172,0.605 l 0.098,0.336 0.05,0.164 c 0.159,0.549 0.302,1.049 0.413,1.549 0.168,0.811 0.315,1.618 0.463,2.433 l 0.049,0.278 c 0.144,0.779 0.287,1.553 0.455,2.326 0.102,0.467 0.184,0.939 0.262,1.41 l 0.045,0.253 c 0.045,0.254 0.09,0.508 0.139,0.762 l 0.143,0.7 0.037,0.18 c 0.111,0.545 0.221,1.094 0.312,1.651 0.269,1.682 0.712,3.384 1.105,4.848 0.319,1.192 0.697,2.392 1.063,3.551 l 0.06,0.187 0.056,0.185 c 0.217,0.684 0.418,1.318 0.611,1.953 0.327,1.077 0.638,2.154 0.946,3.235 l 0.123,0.426 0.31,1.07 0.39,1.338 c 0.323,1.089 0.667,2.171 1.016,3.251 l 0.196,0.627 0.09,0.275 c 0.151,0.479 0.299,0.954 0.446,1.433 0.519,1.676 0.953,3.478 1.271,4.792 l 0.172,0.709 c 0.628,2.54 1.054,5.234 1.429,7.61 l 0.131,0.79 0.094,0.602 0.016,0.115 0.06,0.377 c 0.447,2.842 0.91,5.78 1.263,8.69 0.29,2.42 0.567,5.038 0.897,8.49 0.242,2.578 0.572,5.208 0.889,7.682 l 0.015,0.136 0.086,0.663 c 0.112,0.786 0.243,1.572 0.373,2.358 l 0.095,0.569 c 0.163,0.979 0.327,1.958 0.475,2.937 l 0.143,0.954 c 0.297,2.056 0.56,3.697 0.827,5.168 l 0.561,3.142 c 0.489,2.759 1.062,5.953 1.68,8.926 0.446,2.151 0.896,4.305 1.38,6.454 0.244,1.116 0.568,2.233 0.882,3.313 l 0.051,0.181 0.037,0.118 c 0.193,0.647 0.381,1.294 0.557,1.941 1.176,4.337 2.03,8.711 2.711,12.418 0.417,2.31 0.723,4.109 0.967,5.939 0.211,1.607 0.381,3.321 0.524,5.242 0.27,3.693 0.401,6.97 0.401,10.018 l -0.003,0.508 c 0,2.917 -0.006,6.308 -0.079,9.636 -0.041,1.637 -0.115,3.584 -0.364,5.612 -0.286,2.258 -0.777,4.419 -1.299,6.619 -0.431,1.801 -2.169,3.108 -4.13,3.108 -0.354,0 -0.72,-0.054 -1.087,-0.16 -1.143,-0.312 -2.102,-1.111 -2.632,-2.193 -0.011,10e-4 -0.022,10e-4 -0.033,10e-4 -0.75,0 -1.441,-0.202 -2.024,-0.578 -0.491,-0.311 -0.986,-0.622 -1.477,-0.93 -1.007,-0.628 -1.989,-1.246 -2.933,-1.896 -1.084,-0.746 -2.108,-1.598 -3.098,-2.421 l -0.765,-0.639 c -1.011,-0.781 -2.023,-1.572 -3.031,-2.362 l -1.281,-0.999 c -1.171,-0.873 -2.33,-1.757 -3.481,-2.658 -0.329,-0.26 -0.653,-0.529 -0.977,-0.799 l -0.178,-0.148 -0.228,-0.188 c -0.207,-0.172 -0.415,-0.345 -0.628,-0.516 -0.531,-0.393 -1.076,-0.769 -1.625,-1.146 -0.648,-0.449 -1.223,-0.848 -1.79,-1.27 -0.964,-0.717 -1.923,-1.502 -2.822,-2.244 l -0.399,-0.326 c -0.398,-0.327 -0.797,-0.653 -1.202,-0.973 -2.118,-1.606 -4.193,-3.17 -6.303,-4.627 l -1.134,-0.773 -0.159,-0.109 c -0.611,-0.414 -1.224,-0.83 -1.827,-1.268 -0.422,-0.303 -0.84,-0.61 -1.258,-0.917 -0.79,-0.581 -1.58,-1.159 -2.39,-1.712 -2.083,-1.418 -4.192,-2.951 -6.447,-4.685 -1.173,-0.905 -2.427,-1.887 -3.637,-2.945 -0.327,-0.291 -0.656,-0.582 -0.979,-0.877 l -0.122,-0.109 c -0.595,-0.533 -1.189,-1.067 -1.81,-1.573 -0.631,-0.467 -1.27,-0.921 -1.912,-1.376 l -0.3,-0.213 c -0.487,-0.347 -0.975,-0.694 -1.457,-1.048 l -1.135,-0.844 c -0.99,-0.734 -2.002,-1.485 -3.03,-2.182 -1.241,-0.834 -2.62,-1.685 -4.34,-2.674 -1.021,-0.582 -2.032,-1.214 -3.012,-1.825 -0.634,-0.399 -1.186,-0.744 -1.739,-1.083 -0.667,-0.406 -1.339,-0.807 -2.011,-1.208 -2.285,-1.363 -4.647,-2.772 -6.844,-4.415 -0.675,-0.508 -1.368,-0.999 -2.06,-1.491 l -0.189,-0.135 c -0.731,-0.525 -1.466,-1.05 -2.182,-1.593 -0.911,-0.697 -1.801,-1.451 -2.634,-2.163 -0.749,-0.639 -1.498,-1.278 -2.28,-1.888 l -0.164,-0.127 -0.168,-0.131 0.418,0.266 c -0.375,-0.245 -0.728,-0.522 -1.081,-0.798 l -0.23,-0.18 -1.008,-0.799 c -1.303,-0.952 -2.816,-2.064 -4.291,-3.214 -0.661,-0.519 -1.304,-1.083 -1.925,-1.63 -0.536,-0.474 -1.001,-0.886 -1.483,-1.282 l -0.945,-0.729 c -0.966,-0.715 -2.018,-1.413 -2.863,-1.974 l -0.153,-0.102 c -0.97,-0.651 -1.973,-1.323 -2.927,-2.035 -2.551,-1.914 -4.731,-3.657 -6.668,-5.326 -0.909,-0.584 -1.682,-1.195 -2.363,-1.867 -0.299,-0.295 -0.573,-0.606 -0.848,-0.918 l -0.118,-0.132 c -0.256,-0.284 -0.51,-0.568 -0.787,-0.834 -1.139,-0.696 -2.403,-1.278 -3.518,-1.791 -0.631,-0.267 -1.193,-0.508 -1.742,-0.783 -0.746,-0.367 -1.419,-0.929 -2.012,-1.426 l -0.167,-0.135 c -0.965,-0.711 -2.016,-1.448 -3.161,-2.014 -1.38,-0.518 -2.563,-0.88 -3.719,-1.134 -0.578,-0.123 -1.144,-0.274 -1.709,-0.429 -0.588,-0.163 -1.255,-0.345 -1.924,-0.475 -1.632,-0.173 -4.08,-0.401 -6.489,-0.401 -0.725,0 -1.45,0.02 -2.174,0.065 -0.36,0.215 -0.703,0.461 -1.055,0.715 l -0.43,0.339 -0.541,0.43 c -1.145,0.897 -2.271,1.85 -3.362,2.772 -1.343,1.137 -2.781,2.355 -4.222,3.449 l 0.081,-0.118 c -0.392,0.359 -0.814,0.687 -1.24,1.011 l -0.151,0.115 -0.152,0.114 c -1.379,1.08 -2.702,2.288 -3.98,3.456 l -0.651,0.598 c -0.561,0.508 -1.13,1.012 -1.696,1.511 l -0.281,0.251 c -0.871,0.772 -1.763,1.565 -2.613,2.382 -2.83,2.71 -5.527,5.631 -8.018,8.681 -0.938,1.243 -1.851,2.548 -2.734,3.81 l -0.193,0.277 -0.127,0.181 c -0.806,1.152 -1.614,2.306 -2.45,3.435 -1.459,1.974 -2.914,3.893 -4.666,5.664 -0.621,0.631 -1.247,1.26 -1.873,1.888 l -0.645,0.647 -1.802,1.811 -0.16,0.159 -0.149,0.151 c -2.678,2.699 -5.45,5.491 -8.349,8.02 -1.012,0.881 -2.031,1.753 -3.055,2.621 l -0.261,0.222 c -1.665,1.419 -3.387,2.887 -5.021,4.393 -0.754,0.692 -1.479,1.413 -2.199,2.138 -0.558,0.557 -1.115,1.114 -1.684,1.654 -1.608,1.528 -3.009,2.767 -4.407,3.9 -2.55,2.064 -5.451,4.103 -8.871,6.233 -1.462,0.916 -2.841,1.675 -4.215,2.319 -0.613,0.285 -1.231,0.557 -1.848,0.828 l -0.168,0.073 c -0.872,0.381 -1.74,0.762 -2.595,1.175 -1.723,0.839 -3.31,1.88 -4.635,2.788 -1.538,1.046 -2.911,2.014 -4.197,2.961 -1.311,1.011 -2.601,1.987 -3.969,2.822 -0.651,0.405 -1.311,0.798 -1.974,1.192 -0.799,0.475 -1.601,0.954 -2.392,1.449 -0.712,0.447 -1.437,0.869 -2.162,1.291 -0.835,0.487 -1.675,0.978 -2.494,1.498 -1.215,0.772 -2.491,1.479 -3.725,2.163 l -0.228,0.127 -0.798,0.442 c -0.976,0.545 -1.941,1.152 -2.793,1.687 -0.573,0.364 -1.15,0.725 -1.732,1.073 -0.485,0.294 -0.976,0.58 -1.465,0.864 l -0.206,0.119 c -0.925,0.531 -1.827,1.053 -2.694,1.609 -1.417,0.905 -2.826,1.822 -4.218,2.76 l -0.638,0.436 -0.435,0.297 c -1.043,0.719 -2.225,1.533 -3.445,2.212 -1.867,1.047 -3.869,1.875 -5.636,2.605 -0.786,0.324 -1.6,0.611 -2.389,0.889 l -0.151,0.054 c -0.778,0.27 -1.556,0.54 -2.322,0.847 -2.74,1.17 -5.532,2.267 -8.636,3.477 l -2.425,0.946 c -1.146,0.507 -2.28,1.048 -3.41,1.593 l -0.14,0.066 c -1.112,0.531 -2.222,1.06 -3.35,1.555 -2.592,1.147 -5.23,2.243 -7.695,3.256 l -1.982,0.913 -1.184,0.544 c -0.66,0.303 -1.32,0.606 -1.981,0.906 l -1.458,0.659 c -1.389,0.626 -2.826,1.272 -4.21,1.978 -1.339,0.688 -2.67,1.454 -3.919,2.179 l -1.384,0.79 c -1.798,1.028 -3.674,2.046 -5.578,3.027 -1.044,0.54 -2.126,1.048 -3.175,1.54 -0.747,0.349 -1.425,0.666 -2.104,0.995 -1.946,0.957 -3.958,1.946 -6.082,2.711 l -2.093,0.758 c -2.716,0.983 -5.43,1.966 -8.15,2.928 -0.52,0.185 -1.04,0.357 -1.565,0.528 -0.695,0.23 -1.392,0.459 -2.079,0.717 l -0.34,0.147 c -0.811,0.357 -1.677,0.733 -2.568,1.07 -0.454,0.175 -0.913,0.343 -1.372,0.507 l -0.229,0.083 c -0.397,0.143 -0.792,0.286 -1.184,0.437 l -1.588,0.713 c -2.64,1.19 -5.369,2.422 -8.213,3.215 -0.843,0.24 -1.699,0.444 -2.55,0.649 l -0.18,0.043 c -0.707,0.17 -1.416,0.342 -2.118,0.528 -1.526,0.413 -3.057,0.761 -4.537,1.098 l -1.197,0.274 -0.15,0.035 c -1.134,0.263 -2.306,0.535 -3.479,0.731 -1.539,0.25 -3.182,0.386 -4.502,0.496 l -1.196,0.107 c -1.47,0.13 -3.021,0.194 -4.268,0.245 -1.57,0.066 -3.351,0.141 -5.052,0.332 L 5.055,-0.594 C 3.514,-0.333 1.92,-0.062 0.295,-0.008 0.197,-0.004 0.098,0 0,0"
             style="fill:#050000;fill-opacity:1;fill-rule:nonzero;stroke:none"
             id="path66"
             inkscape:connector-curvature="0" /></g></g></g><g
       id="g68"
       transform="translate(44.044364)"><g
         id="g70"
         clip-path="url(#clipPath74)"><g
           id="g76"
           transform="translate(1462.1807,1837.0674)"><path
             d="m 0,0 h -6.34 -60.692 -27.397 -39.892 -0.651 -1.7 c -1.669,0 -3.234,-1.05 -3.895,-2.614 -0.713,0.506 -1.545,0.759 -2.387,0.759 -0.734,0 -1.463,-0.196 -2.106,-0.567 -2.001,-1.17 -2.68,-3.762 -1.515,-5.776 l 102.156,-176.936 89.761,-155.476 11.536,-19.981 c 29.846,-51.687 59.692,-103.385 89.53,-155.071 l 2.907,-5.038 147.365,-255.237 c -48.05,-83.197 -96.104,-166.425 -144.158,-249.658 l -86.225,-149.349 -20.558,-35.609 -28.528,-49.401 -71.385,-123.64 -81.192,-140.635 -2.405,-4.169 -3.111,-5.394 -3.203,-5.545 -0.336,-0.577 -0.336,-0.577 -0.073,-0.127 -0.127,-0.23 -0.155,-0.266 -0.82,-1.425 -1.278,-2.207 c -1.165,-2.015 -0.485,-4.607 1.516,-5.776 0.63,-0.372 1.357,-0.567 2.101,-0.567 0.094,0 0.193,0 0.287,0.01 0.701,-0.498 1.527,-0.762 2.383,-0.762 h 2.352 2.748 76.839 21.897 25.899 H 0 c 1.479,0 2.91,0.825 3.646,2.102 l 1.904,3.305 0.056,0.089 1.156,2.008 0.065,0.106 0.095,0.169 0.065,0.114 0.258,0.442 0.14,0.241 0.118,0.205 2.162,3.744 0.762,1.318 0.046,0.108 0.216,0.351 0.053,0.099 c 51.104,88.469 102.182,176.956 153.26,265.442 l 0.362,0.627 65.061,112.693 23.405,40.543 196.351,340.087 c 0.759,1.314 0.759,2.947 0,4.261 L 250.2,-429.15 l -77.212,133.735 -50.94,88.24 -71.614,124.038 -18.142,31.423 -10.771,18.65 -6.834,11.843 -7.659,13.265 -0.823,1.425 -0.741,1.282 -0.455,0.79 -0.454,0.787 C 4.151,-2.815 3.624,-1.996 2.989,-1.24 2.196,-0.452 1.107,0 0,0"
             style="fill:#050000;fill-opacity:1;fill-rule:nonzero;stroke:none"
             id="path78"
             inkscape:connector-curvature="0" /></g><g
           id="g80"
           transform="translate(1324.332,1836.958)"><path
             d="m 0,0 c -0.346,-0.023 -0.643,-0.074 -0.939,-0.129 -0.523,-0.016 -1.057,0.013 -1.576,0.023 -0.175,0.004 -0.356,0.02 -0.532,0.004 -0.695,-0.058 -1.27,-0.192 -1.808,-0.442 -0.797,0.064 -1.569,-0.231 -2.263,-0.582 -0.239,-0.12 -0.459,-0.268 -0.658,-0.436 -1.135,-0.691 -1.799,-2.216 -1.799,-3.471 0,-1.278 0.625,-2.601 1.671,-3.365 0.25,-0.706 0.619,-1.374 1.049,-1.971 0.614,-0.86 1.256,-1.601 2.24,-2.052 0.011,-0.005 0.022,-0.011 0.033,-0.016 0.189,-0.252 0.38,-0.505 0.576,-0.753 0.652,-0.832 1.852,-1.389 2.83,-1.692 0.852,-0.261 1.759,-0.34 2.653,-0.433 0.773,-0.144 1.524,-0.344 2.261,-0.614 0.987,-0.469 1.93,-1.047 2.832,-1.664 0.287,-0.261 0.557,-0.534 0.826,-0.823 1.552,-1.679 4.362,-1.573 5.93,0 1.662,1.658 1.552,4.255 0,5.93 -1.954,2.105 -4.493,3.452 -7.101,4.554 C 5.281,-7.536 4.287,-7.317 3.282,-7.16 5.03,-5.306 4.716,-1.854 2.317,-0.602 1.67,-0.267 0.938,0.006 0.193,0.007 0.129,0.007 0.064,0.004 0,0"
             style="fill:#050000;fill-opacity:1;fill-rule:nonzero;stroke:none"
             id="path82"
             inkscape:connector-curvature="0" /></g></g></g><g
       id="g84"
       transform="translate(44.044364)"><g
         id="g86"
         clip-path="url(#clipPath90)"><g
           id="g92"
           transform="translate(297.731,1837.4033)"><path
             d="m 0,0 h -97.193 -18.285 c -2.127,0 -3.974,-1.665 -4.204,-3.79 -0.189,0.06 -0.39,0.083 -0.62,0.083 -2.293,0 -4.229,-1.936 -4.229,-4.228 v -581.183 -37.369 -549.687 -375.896 c 0,-1.974 1.475,-3.758 3.432,-4.151 0.542,-0.246 1.144,-0.377 1.741,-0.377 0.137,0 0.275,0.01 0.412,0.021 0.445,0.045 0.877,0.16 1.285,0.341 0.268,-0.031 0.535,-0.044 0.797,-0.044 0.714,0 1.411,0.103 2.196,0.326 0.461,0.128 0.915,0.312 1.34,0.492 0.799,-0.851 1.913,-1.341 3.047,-1.341 h 3.075 H 0 c 2.292,0 4.229,1.937 4.229,4.229 v 557.636 589.763 400.946 C 4.229,-1.937 2.292,0 0,0"
             style="fill:#050000;fill-opacity:1;fill-rule:nonzero;stroke:none"
             id="path94"
             inkscape:connector-curvature="0" /></g></g></g></g></svg>